<?xml version="1.0" encoding="utf-8"?>
<svg version="1.1" xmlns:xlink="http://www.w3.org/1999/xlink" width="14px" height="14px" viewBox="45 3115  14 14" xmlns="http://www.w3.org/2000/svg">
  <path d="M 45.5 3117  A 1.5 1.5 0 0 1 47 3115.5 L 57 3115.5  A 1.5 1.5 0 0 1 58.5 3117 L 58.5 3127  A 1.5 1.5 0 0 1 57 3128.5 L 47 3128.5  A 1.5 1.5 0 0 1 45.5 3127 L 45.5 3117  Z " fill-rule="nonzero" fill="#f0f0f0" stroke="none" />
  <path d="M 45.5 3117  A 1.5 1.5 0 0 1 47 3115.5 L 57 3115.5  A 1.5 1.5 0 0 1 58.5 3117 L 58.5 3127  A 1.5 1.5 0 0 1 57 3128.5 L 47 3128.5  A 1.5 1.5 0 0 1 45.5 3127 L 45.5 3117  Z " stroke-width="1" stroke="#2699fb" fill="none" />
  <path d="M 48.5 3122.5  L 51.5 3125.5  " stroke-width="3" stroke="#2699fb" fill="none" />
  <path d="M 51.5 3125.5  L 56.5 3118.5  " stroke-width="3" stroke="#2699fb" fill="none" />
</svg>