<?xml version="1.0" encoding="utf-8"?>
<svg version="1.1" xmlns:xlink="http://www.w3.org/1999/xlink" width="96px" height="96px" xmlns="http://www.w3.org/2000/svg">
  <defs>
    <filter x="137px" y="2694px" width="96px" height="96px" filterUnits="userSpaceOnUse" id="filter276">
      <feOffset dx="-2" dy="2" in="SourceAlpha" result="shadowOffsetInner" />
      <feGaussianBlur stdDeviation="1" in="shadowOffsetInner" result="shadowGaussian" />
      <feComposite in2="shadowGaussian" operator="atop" in="SourceAlpha" result="shadowComposite" />
      <feColorMatrix type="matrix" values="0 0 0 0 0  0 0 0 0 0  0 0 0 0 0  0 0 0 0.349019607843137 0  " in="shadowComposite" />
    </filter>
    <g id="widget277">
      <path d="M 187 2696  C 211.64 2696  231 2715.36  231 2740  C 231 2764.64  211.64 2784  187 2784  C 162.36 2784  143 2764.64  143 2740  C 143 2715.36  162.36 2696  187 2696  Z " fill-rule="nonzero" fill="#ffffff" stroke="none" />
      <path d="M 187 2695.5  C 211.92 2695.5  231.5 2715.08  231.5 2740  C 231.5 2764.92  211.92 2784.5  187 2784.5  C 162.08 2784.5  142.5 2764.92  142.5 2740  C 142.5 2715.08  162.08 2695.5  187 2695.5  Z " stroke-width="3" stroke="#2699fb" fill="none" />
    </g>
  </defs>
  <g transform="matrix(1 0 0 1 -137 -2694 )">
    <use xlink:href="#widget277" filter="url(#filter276)" />
    <use xlink:href="#widget277" />
  </g>
</svg>