<?xml version="1.0" encoding="utf-8"?>
<svg version="1.1" xmlns:xlink="http://www.w3.org/1999/xlink" width="138px" height="138px" xmlns="http://www.w3.org/2000/svg">
  <defs>
    <filter x="936px" y="1477px" width="138px" height="138px" filterUnits="userSpaceOnUse" id="filter274">
      <feOffset dx="-2" dy="2" in="SourceAlpha" result="shadowOffsetInner" />
      <feGaussianBlur stdDeviation="1" in="shadowOffsetInner" result="shadowGaussian" />
      <feComposite in2="shadowGaussian" operator="atop" in="SourceAlpha" result="shadowComposite" />
      <feColorMatrix type="matrix" values="0 0 0 0 0  0 0 0 0 0  0 0 0 0 0  0 0 0 0.349019607843137 0  " in="shadowComposite" />
    </filter>
    <g id="widget275">
      <path d="M 1007 1479  C 1043.4 1479  1072 1507.6  1072 1544  C 1072 1580.4  1043.4 1609  1007 1609  C 970.6 1609  942 1580.4  942 1544  C 942 1507.6  970.6 1479  1007 1479  Z " fill-rule="nonzero" fill="#ffffff" stroke="none" />
      <path d="M 1007 1478.5  C 1043.68 1478.5  1072.5 1507.32  1072.5 1544  C 1072.5 1580.68  1043.68 1609.5  1007 1609.5  C 970.32 1609.5  941.5 1580.68  941.5 1544  C 941.5 1507.32  970.32 1478.5  1007 1478.5  Z " stroke-width="3" stroke="#2699fb" fill="none" />
    </g>
  </defs>
  <g transform="matrix(1 0 0 1 -936 -1477 )">
    <use xlink:href="#widget275" filter="url(#filter274)" />
    <use xlink:href="#widget275" />
  </g>
</svg>