<?xml version="1.0" encoding="utf-8"?>
<svg version="1.1" xmlns:xlink="http://www.w3.org/1999/xlink" width="96px" height="96px" xmlns="http://www.w3.org/2000/svg">
  <defs>
    <filter x="137px" y="5057px" width="96px" height="96px" filterUnits="userSpaceOnUse" id="filter22">
      <feOffset dx="-2" dy="2" in="SourceAlpha" result="shadowOffsetInner" />
      <feGaussianBlur stdDeviation="1" in="shadowOffsetInner" result="shadowGaussian" />
      <feComposite in2="shadowGaussian" operator="atop" in="SourceAlpha" result="shadowComposite" />
      <feColorMatrix type="matrix" values="0 0 0 0 0  0 0 0 0 0  0 0 0 0 0  0 0 0 0.349019607843137 0  " in="shadowComposite" />
    </filter>
    <g id="widget23">
      <path d="M 187 5059  C 211.64 5059  231 5078.36  231 5103  C 231 5127.64  211.64 5147  187 5147  C 162.36 5147  143 5127.64  143 5103  C 143 5078.36  162.36 5059  187 5059  Z " fill-rule="nonzero" fill="#ffffff" stroke="none" />
      <path d="M 187 5058.5  C 211.92 5058.5  231.5 5078.08  231.5 5103  C 231.5 5127.92  211.92 5147.5  187 5147.5  C 162.08 5147.5  142.5 5127.92  142.5 5103  C 142.5 5078.08  162.08 5058.5  187 5058.5  Z " stroke-width="3" stroke="#2699fb" fill="none" />
    </g>
  </defs>
  <g transform="matrix(1 0 0 1 -137 -5057 )">
    <use xlink:href="#widget23" filter="url(#filter22)" />
    <use xlink:href="#widget23" />
  </g>
</svg>