<?xml version="1.0" encoding="utf-8"?>
<svg version="1.1" xmlns:xlink="http://www.w3.org/1999/xlink" width="138px" height="138px" xmlns="http://www.w3.org/2000/svg">
  <defs>
    <filter x="936px" y="2473px" width="138px" height="138px" filterUnits="userSpaceOnUse" id="filter145">
      <feOffset dx="-2" dy="2" in="SourceAlpha" result="shadowOffsetInner" />
      <feGaussianBlur stdDeviation="1" in="shadowOffsetInner" result="shadowGaussian" />
      <feComposite in2="shadowGaussian" operator="atop" in="SourceAlpha" result="shadowComposite" />
      <feColorMatrix type="matrix" values="0 0 0 0 0  0 0 0 0 0  0 0 0 0 0  0 0 0 0.349019607843137 0  " in="shadowComposite" />
    </filter>
    <g id="widget146">
      <path d="M 1007 2475  C 1043.4 2475  1072 2503.6  1072 2540  C 1072 2576.4  1043.4 2605  1007 2605  C 970.6 2605  942 2576.4  942 2540  C 942 2503.6  970.6 2475  1007 2475  Z " fill-rule="nonzero" fill="#ffffff" stroke="none" />
      <path d="M 1007 2474.5  C 1043.68 2474.5  1072.5 2503.32  1072.5 2540  C 1072.5 2576.68  1043.68 2605.5  1007 2605.5  C 970.32 2605.5  941.5 2576.68  941.5 2540  C 941.5 2503.32  970.32 2474.5  1007 2474.5  Z " stroke-width="3" stroke="#2699fb" fill="none" />
    </g>
  </defs>
  <g transform="matrix(1 0 0 1 -936 -2473 )">
    <use xlink:href="#widget146" filter="url(#filter145)" />
    <use xlink:href="#widget146" />
  </g>
</svg>