<?xml version="1.0" encoding="utf-8"?>
<svg version="1.1" xmlns:xlink="http://www.w3.org/1999/xlink" width="91px" height="80px" xmlns="http://www.w3.org/2000/svg">
  <g transform="matrix(1 0 0 1 -1023 -1936 )">
    <path d="M 11.5066550925926 1.953125  C 12.8232060185185 3.25520833333333  13.4814814814815 4.82638888888888  13.4814814814815 6.66666666666667  C 13.4814814814815 9.16666666666667  12.358024691358 11.0763888888889  11 12.3958333333333  L 11 78.3333333333333  C 10.1111111111111 78.7847222222222  9.94434799382716 79.1753472222222  9.61082175925926 79.5052083333333  C 9.27729552469136 79.8350694444444  8.88233024691358 80  8.42592592592593 80  L 5.05555555555556 80  C 4.5991512345679 80  4.20418595679012 79.8350694444444  3.87065972222222 79.5052083333333  C 3.53713348765432 79.1753472222222  3.37037037037037 78.7847222222222  4 78.3333333333333  L 4 12.3958333333333  C 1.12345679012346 11.0763888888889  0 9.16666666666667  0 6.66666666666667  C 0 4.82638888888888  0.658275462962963 3.25520833333333  1.97482638888889 1.953125  C 3.29137731481481 0.65104166666667  4.88001543209877 0  6.74074074074074 0  C 8.60146604938272 0  10.1901041666667 0.65104166666667  11.5066550925926 1.953125  Z M 89.9994212962963 7.65625  C 90.6664737654321 8.31597222222221  91 9.09722222222221  91 10  L 91 49.7395833333333  C 91 50.6076388888889  90.780574845679 51.2760416666667  90.341724537037 51.7447916666667  C 89.9028742283951 52.2135416666667  89.2094907407407 52.6909722222222  88.2615740740741 53.1770833333333  C 80.7133487654321 57.2048611111111  74.2359182098765 59.21875  68.8292824074074 59.21875  C 66.6876929012346 59.21875  64.5197723765432 58.8368055555556  62.3255208333333 58.0729166666667  C 60.1312692901235 57.3090277777778  58.2266589506173 56.4756944444444  56.6116898148148 55.5729166666667  C 54.9967206790124 54.6701388888889  52.9692322530864 53.8368055555556  50.529224537037 53.0729166666667  C 48.0892168209877 52.3090277777778  45.5877700617284 51.9270833333333  43.0248842592593 51.9270833333333  C 36.2841435185185 51.9270833333333  28.1390817901235 54.4618055555556  18.5896990740741 59.53125  C 17.992862654321 59.84375  17.4135802469136 60  16.8518518518519 60  C 15.9390432098765 60  15.149112654321 59.6701388888889  14.4820601851852 59.0104166666667  C 13.8150077160494 58.3506944444444  13.4814814814815 57.5694444444444  14 56.6666666666667  L 14 18.0208333333333  C 13.4814814814815 16.9097222222222  14.0256558641975 15.9548611111111  15.1140046296296 15.15625  C 15.8512731481481 14.6701388888889  17.2380401234568 13.9236111111111  19.2743055555556 12.9166666666667  C 27.5597993827161 8.75  34.9500385802469 6.66666666666667  41.4450231481482 6.66666666666667  C 45.2015817901235 6.66666666666667  48.7123842592593 7.17013888888888  51.9774305555556 8.17708333333333  C 55.2424768518519 9.18402777777778  59.0868055555556 10.7118055555555  63.5104166666667 12.7604166666667  C 64.8445216049383 13.4201388888889  66.389274691358 13.75  68.1446759259259 13.75  C 70.0405092592593 13.75  72.1031057098765 13.3854166666667  74.3324652777778 12.65625  C 76.561824845679 11.9270833333333  78.4927662037037 11.1111111111111  80.1252893518519 10.2083333333333  C 81.7578125 9.30555555555554  83.3025655864198 8.48958333333333  84.7595486111111 7.76041666666667  C 86.2165316358025 7.03125  87.173225308642 6.66666666666667  87.6296296296296 6.66666666666667  C 88.5424382716049 6.66666666666667  89.3323688271605 6.99652777777778  89.9994212962963 7.65625  Z " fill-rule="nonzero" fill="#ffffff" stroke="none" transform="matrix(1 0 0 1 1023 1936 )" />
  </g>
</svg>