<?xml version="1.0" encoding="utf-8"?>
<svg version="1.1" xmlns:xlink="http://www.w3.org/1999/xlink" width="98px" height="80px" xmlns="http://www.w3.org/2000/svg">
  <g transform="matrix(1 0 0 1 -249 -1936 )">
    <path d="M 30.5115740740741 70.5681818181818  C 31.9483024691358 69.1287878787879  32.6666666666667 67.4242424242424  32.6666666666667 65.4545454545455  C 32.6666666666667 63.4848484848485  31.9483024691358 61.780303030303  30.5115740740741 60.3409090909091  C 29.0748456790124 58.9015151515152  27.3734567901235 58.1818181818182  25.4074074074074 58.1818181818182  C 23.4413580246914 58.1818181818182  21.7399691358025 58.9015151515152  20.3032407407407 60.3409090909091  C 18.866512345679 61.780303030303  18.1481481481481 63.4848484848485  18.1481481481481 65.4545454545455  C 18.1481481481481 67.4242424242424  18.866512345679 69.1287878787879  20.3032407407407 70.5681818181818  C 21.7399691358025 72.0075757575758  23.4413580246914 72.7272727272727  25.4074074074074 72.7272727272727  C 27.3734567901235 72.7272727272727  29.0748456790124 72.0075757575758  30.5115740740741 70.5681818181818  Z M 10.8888888888889 34.6590909090909  L 10.8888888888889 37  L 33 37  L 33 21.8181818181818  L 23.7060185185185 21.8181818181818  C 23.2145061728395 21.8181818181818  22.7986111111111 21.9886363636364  22.4583333333333 22.3295454545455  L 11.3993055555556 33.4090909090909  C 11.0590277777778 33.75  10.8888888888889 34.1666666666667  10.8888888888889 34.6590909090909  Z M 81.3263888888889 70.5681818181818  C 82.7631172839506 69.1287878787879  83.4814814814815 67.4242424242424  83.4814814814815 65.4545454545455  C 83.4814814814815 63.4848484848485  82.7631172839506 61.780303030303  81.3263888888889 60.3409090909091  C 79.8896604938272 58.9015151515152  78.1882716049383 58.1818181818182  76.2222222222222 58.1818181818182  C 74.2561728395062 58.1818181818182  72.5547839506173 58.9015151515152  71.1180555555556 60.3409090909091  C 69.6813271604938 61.780303030303  68.962962962963 63.4848484848485  68.962962962963 65.4545454545455  C 68.962962962963 67.4242424242424  69.6813271604938 69.1287878787879  71.1180555555556 70.5681818181818  C 72.5547839506173 72.0075757575758  74.2561728395062 72.7272727272727  76.2222222222222 72.7272727272727  C 78.1882716049383 72.7272727272727  79.8896604938272 72.0075757575758  81.3263888888889 70.5681818181818  Z M 96.9224537037037 1.07954545454546  C 97.6408179012346 1.79924242424241  98 2.65151515151515  98 3.63636363636363  L 98 61.8181818181818  C 98 62.3863636363636  97.9243827160494 62.8882575757576  97.7731481481482 63.3238636363636  C 97.6219135802469 63.7594696969697  97.3667052469136 64.1098484848485  97.0075231481482 64.375  C 96.6483410493827 64.6401515151515  96.3364197530864 64.8579545454545  96.0717592592593 65.0284090909091  C 95.8070987654321 65.1988636363636  95.3628472222222 65.3125  94.7390046296296 65.3693181818182  C 94.115162037037 65.4261363636364  93.6898148148148 65.4640151515152  93.462962962963 65.4829545454545  C 93.2361111111111 65.5018939393939  92.7540509259259 65.5018939393939  92.0167824074074 65.4829545454545  C 91.2795138888889 65.4640151515152  90.8541666666667 65.4545454545455  90.7407407407407 65.4545454545455  C 90.7407407407407 69.469696969697  89.3229166666667 72.8977272727273  86.4872685185185 75.7386363636364  C 83.6516203703704 78.5795454545455  80.2299382716049 80  76.2222222222222 80  C 72.2145061728395 80  68.7928240740741 78.5795454545455  65.9571759259259 75.7386363636364  C 63.1215277777778 72.8977272727273  61.7037037037037 69.469696969697  61.7037037037037 65  L 39.9259259259259 65  C 39.9259259259259 69.469696969697  38.5081018518519 72.8977272727273  35.6724537037037 75.7386363636364  C 32.8368055555556 78.5795454545455  29.4151234567901 80  25.4074074074074 80  C 21.3996913580247 80  17.9780092592593 78.5795454545455  15.1423611111111 75.7386363636364  C 12.306712962963 72.8977272727273  10.8888888888889 69.469696969697  10.8888888888889 65.4545454545455  L 7.25925925925926 65.4545454545455  C 7.14583333333333 65.4545454545455  6.72048611111111 65.4640151515152  5.98321759259259 65.4829545454545  C 5.24594907407407 65.5018939393939  4.76388888888889 65.5018939393939  4.53703703703704 65.4829545454545  C 4.31018518518519 65.4640151515152  3.88483796296296 65.4261363636364  3.26099537037037 65.3693181818182  C 2.63715277777778 65.3125  2.1929012345679 65.1988636363636  1.92824074074074 65.0284090909091  C 1.66358024691358 64.8579545454545  1.35165895061728 64.6401515151515  0.992476851851852 64.375  C 0.63329475308642 64.1098484848485  0.378086419753087 63.7594696969697  0.226851851851852 63.3238636363636  C 0.0756172839506178 62.8882575757576  0 62.3863636363636  0 61.8181818181818  C 0 60.8333333333333  0.359182098765433 59.9810606060606  1.0775462962963 59.2613636363636  C 1.79591049382716 58.5416666666667  2.64660493827161 58.1818181818182  4 58.1818181818182  L 4 40  C 3.62962962962963 39.6969696969697  3.6201774691358 39.0340909090909  3.60127314814815 38.0113636363636  C 3.58236882716049 36.9886363636364  3.58236882716049 36.2689393939394  3.60127314814815 35.8522727272727  C 3.6201774691358 35.4356060606061  3.66743827160494 34.782196969697  3.74305555555556 33.8920454545455  C 3.81867283950617 33.0018939393939  3.94155092592593 32.3011363636364  4.11168981481481 31.7897727272727  C 4.2818287037037 31.2784090909091  4.54648919753087 30.7007575757576  4.9056712962963 30.0568181818182  C 5.26485339506173 29.4128787878788  5.69020061728395 28.844696969697  6.18171296296296 28.3522727272727  L 17.4108796296296 17.1022727272727  C 18.1292438271605 16.3825757575758  19.083912037037 15.7765151515151  20.2748842592593 15.2840909090909  C 21.4658564814815 14.7916666666667  22.5717592592593 14.5454545454545  23.5925925925926 14.5454545454545  L 33 14.5454545454545  L 33 3.63636363636363  C 32.6666666666667 2.65151515151515  33.0258487654321 1.79924242424241  33.744212962963 1.07954545454546  C 34.4625771604938 0.359848484848477  35.3132716049383 0  36.2962962962963 0  L 94.3703703703704 0  C 95.3533950617284 0  96.2040895061728 0.359848484848477  96.9224537037037 1.07954545454546  Z " fill-rule="nonzero" fill="#ffffff" stroke="none" transform="matrix(1 0 0 1 249 1936 )" />
  </g>
</svg>