<?xml version="1.0" encoding="utf-8"?>
<svg version="1.1" xmlns:xlink="http://www.w3.org/1999/xlink" width="14px" height="14px" viewBox="45 3245  14 14" xmlns="http://www.w3.org/2000/svg">
  <path d="M 45.5 3247  A 1.5 1.5 0 0 1 47 3245.5 L 57 3245.5  A 1.5 1.5 0 0 1 58.5 3247 L 58.5 3257  A 1.5 1.5 0 0 1 57 3258.5 L 47 3258.5  A 1.5 1.5 0 0 1 45.5 3257 L 45.5 3247  Z " fill-rule="nonzero" fill="#ffffff" stroke="none" />
  <path d="M 45.5 3247  A 1.5 1.5 0 0 1 47 3245.5 L 57 3245.5  A 1.5 1.5 0 0 1 58.5 3247 L 58.5 3257  A 1.5 1.5 0 0 1 57 3258.5 L 47 3258.5  A 1.5 1.5 0 0 1 45.5 3257 L 45.5 3247  Z " stroke-width="1" stroke="#2699fb" fill="none" />
</svg>