<?xml version="1.0" encoding="utf-8"?>
<svg version="1.1" xmlns:xlink="http://www.w3.org/1999/xlink" width="14px" height="14px" viewBox="567 2021  14 14" xmlns="http://www.w3.org/2000/svg">
  <path d="M 567.5 2023  A 1.5 1.5 0 0 1 569 2021.5 L 579 2021.5  A 1.5 1.5 0 0 1 580.5 2023 L 580.5 2033  A 1.5 1.5 0 0 1 579 2034.5 L 569 2034.5  A 1.5 1.5 0 0 1 567.5 2033 L 567.5 2023  Z " fill-rule="nonzero" fill="#f0f0f0" stroke="none" />
  <path d="M 567.5 2023  A 1.5 1.5 0 0 1 569 2021.5 L 579 2021.5  A 1.5 1.5 0 0 1 580.5 2023 L 580.5 2033  A 1.5 1.5 0 0 1 579 2034.5 L 569 2034.5  A 1.5 1.5 0 0 1 567.5 2033 L 567.5 2023  Z " stroke-width="1" stroke="#2699fb" fill="none" />
  <path d="M 570.5 2028.5  L 573.5 2031.5  " stroke-width="3" stroke="#2699fb" fill="none" />
  <path d="M 573.5 2031.5  L 578.5 2024.5  " stroke-width="3" stroke="#2699fb" fill="none" />
</svg>