<?xml version="1.0" encoding="utf-8"?>
<svg version="1.1" xmlns:xlink="http://www.w3.org/1999/xlink" width="61px" height="73px" xmlns="http://www.w3.org/2000/svg">
  <g transform="matrix(1 0 0 1 -212 -935 )">
    <path d="M 60.594921875 52.7776692708333  C 60.8649739583333 55.1698133680556  61 57.7124565972222  61 60.4055989583333  C 61 63.8591579861111  60.0071614583333 66.8216145833333  58.021484375 69.29296875  C 56.0358072916667 71.7643229166667  53.6450520833333 73  50.84921875 73  L 10.15078125 73  C 7.35494791666667 73  4.96419270833333 71.7643229166667  2.978515625 69.29296875  C 0.992838541666667 66.8216145833333  0 63.8591579861111  0 60.4055989583333  C 0 57.7124565972222  0.135026041666667 55.1698133680556  0.405078125 52.7776692708333  C 0.675130208333334 50.3855251736111  1.17552083333333 47.9775390625  1.90625 45.5537109375  C 2.63697916666667 43.1298828125  3.56627604166667 41.0545789930556  4.694140625 39.3277994791667  C 5.82200520833333 37.6010199652778  7.315234375 36.1910807291667  9.173828125 35.0979817708333  C 11.032421875 34.0048828125  13.1690104166667 33.4583333333333  15.58359375 33.4583333333333  C 19.7455729166667 37.5138888888889  24.7177083333333 39.5416666666667  30.5 39.5416666666667  C 36.2822916666667 39.5416666666667  41.2544270833333 37.5138888888889  45.41640625 33.4583333333333  C 47.8309895833333 33.4583333333333  49.967578125 34.0048828125  51.826171875 35.0979817708333  C 53.684765625 36.1910807291667  55.1779947916667 37.6010199652778  56.305859375 39.3277994791667  C 57.4337239583333 41.0545789930556  58.3630208333333 43.1298828125  59.09375 45.5537109375  C 59.8244791666667 47.9775390625  60.3248697916667 50.3855251736111  60.594921875 52.7776692708333  Z M 43.438671875 5.3466796875  C 47.012890625 8.9111328125  48.8 13.2122395833333  48.8 18.25  C 48.8 23.2877604166667  47.012890625 27.5888671875  43.438671875 31.1533203125  C 39.864453125 34.7177734375  35.5515625 36.5  30.5 36.5  C 25.4484375 36.5  21.135546875 34.7177734375  17.561328125 31.1533203125  C 13.987109375 27.5888671875  12.2 23.2877604166667  12.2 18.25  C 12.2 13.2122395833333  13.987109375 8.9111328125  17.561328125 5.3466796875  C 21.135546875 1.7822265625  25.4484375 0  30.5 0  C 35.5515625 0  39.864453125 1.7822265625  43.438671875 5.3466796875  Z " fill-rule="nonzero" fill="#2699fb" stroke="none" transform="matrix(1 0 0 1 212 935 )" />
  </g>
</svg>