<?xml version="1.0" encoding="utf-8"?>
<svg version="1.1" xmlns:xlink="http://www.w3.org/1999/xlink" width="14px" height="14px" viewBox="567 1861  14 14" xmlns="http://www.w3.org/2000/svg">
  <path d="M 567.5 1863  A 1.5 1.5 0 0 1 569 1861.5 L 579 1861.5  A 1.5 1.5 0 0 1 580.5 1863 L 580.5 1873  A 1.5 1.5 0 0 1 579 1874.5 L 569 1874.5  A 1.5 1.5 0 0 1 567.5 1873 L 567.5 1863  Z " fill-rule="nonzero" fill="#f0f0f0" stroke="none" />
  <path d="M 567.5 1863  A 1.5 1.5 0 0 1 569 1861.5 L 579 1861.5  A 1.5 1.5 0 0 1 580.5 1863 L 580.5 1873  A 1.5 1.5 0 0 1 579 1874.5 L 569 1874.5  A 1.5 1.5 0 0 1 567.5 1873 L 567.5 1863  Z " stroke-width="1" stroke="#2699fb" fill="none" />
</svg>