<?xml version="1.0" encoding="utf-8"?>
<svg version="1.1" xmlns:xlink="http://www.w3.org/1999/xlink" width="14px" height="14px" viewBox="45 2451  14 14" xmlns="http://www.w3.org/2000/svg">
  <path d="M 45.5 2453  A 1.5 1.5 0 0 1 47 2451.5 L 57 2451.5  A 1.5 1.5 0 0 1 58.5 2453 L 58.5 2463  A 1.5 1.5 0 0 1 57 2464.5 L 47 2464.5  A 1.5 1.5 0 0 1 45.5 2463 L 45.5 2453  Z " fill-rule="nonzero" fill="#f0f0f0" stroke="none" />
  <path d="M 45.5 2453  A 1.5 1.5 0 0 1 47 2451.5 L 57 2451.5  A 1.5 1.5 0 0 1 58.5 2453 L 58.5 2463  A 1.5 1.5 0 0 1 57 2464.5 L 47 2464.5  A 1.5 1.5 0 0 1 45.5 2463 L 45.5 2453  Z " stroke-width="1" stroke="#2699fb" fill="none" />
</svg>