<?xml version="1.0" encoding="utf-8"?>
<svg version="1.1" xmlns:xlink="http://www.w3.org/1999/xlink" width="14px" height="14px" viewBox="186 890.5  14 14" xmlns="http://www.w3.org/2000/svg">
  <path d="M 186.5 892.5  A 1.5 1.5 0 0 1 188 891 L 198 891  A 1.5 1.5 0 0 1 199.5 892.5 L 199.5 902.5  A 1.5 1.5 0 0 1 198 904 L 188 904  A 1.5 1.5 0 0 1 186.5 902.5 L 186.5 892.5  Z " fill-rule="nonzero" fill="#f0f0f0" stroke="none" />
  <path d="M 186.5 892.5  A 1.5 1.5 0 0 1 188 891 L 198 891  A 1.5 1.5 0 0 1 199.5 892.5 L 199.5 902.5  A 1.5 1.5 0 0 1 198 904 L 188 904  A 1.5 1.5 0 0 1 186.5 902.5 L 186.5 892.5  Z " stroke-width="1" stroke="#2699fb" fill="none" />
  <path d="M 189.5 898  L 192.5 901  " stroke-width="3" stroke="#2699fb" fill="none" />
  <path d="M 192.5 901  L 197.5 894  " stroke-width="3" stroke="#2699fb" fill="none" />
</svg>