<?xml version="1.0" encoding="utf-8"?>
<svg version="1.1" xmlns:xlink="http://www.w3.org/1999/xlink" width="20px" height="20px" xmlns="http://www.w3.org/2000/svg">
  <g transform="matrix(1 0 0 1 -273 -225 )">
    <path d="M 20 2.38095238095238  C 20 1.06666666666667  18.9333333333333 0  17.6190476190476 0  L 2.38095238095238 0  C 1.06666666666667 0  0 1.06666666666667  0 2.38095238095238  L 0 17.6190476190476  C 0 18.9333333333333  1.06666666666667 20  2.38095238095238 20  L 17.6190476190476 20  C 18.9333333333333 20  20 18.9333333333333  20 17.6190476190476  L 20 2.38095238095238  Z M 3.33333333333333 7.61904761904762  L 6.19047619047619 7.61904761904762  L 6.19047619047619 16.6666666666667  L 3.33333333333333 16.6666666666667  L 3.33333333333333 7.61904761904762  Z M 4.76190476190476 6.19047619047619  C 3.9047619047619 6.19047619047619  3.33333333333333 5.65238095238095  3.33333333333333 4.98571428571429  C 3.33333333333333 4.31904761904762  3.9047619047619 3.80952380952381  4.76190476190476 3.80952380952381  C 5.61904761904762 3.80952380952381  6.15714285714286 4.31904761904762  6.19047619047619 4.98571428571429  C 6.19047619047619 5.65238095238095  5.65714285714286 6.19047619047619  4.76190476190476 6.19047619047619  Z M 16.6666666666667 11.552380952381  L 16.6666666666667 16.6666666666667  L 13.8095238095238 16.6666666666667  C 13.8095238095238 16.6666666666667  13.8095238095238 12.2571428571429  13.8095238095238 11.9047619047619  C 13.8095238095238 10.952380952381  13.3333333333333 10  12.1428571428571 9.98095238095238  L 12.1047619047619 9.98095238095238  C 10.952380952381 9.98095238095238  10.4761904761905 10.9619047619048  10.4761904761905 11.9047619047619  C 10.4761904761905 12.3380952380952  10.4761904761905 16.6666666666667  10.4761904761905 16.6666666666667  L 7.61904761904762 16.6666666666667  L 7.61904761904762 7.61904761904762  L 10.4761904761905 7.61904761904762  L 10.4761904761905 8.83809523809524  C 10.4761904761905 8.83809523809524  11.3952380952381 7.61904761904762  13.2428571428571 7.61904761904762  C 15.1333333333333 7.61904761904762  16.6666666666667 8.91904761904762  16.6666666666667 11.552380952381  Z " fill-rule="nonzero" fill="#ffffff" stroke="none" transform="matrix(1 0 0 1 273 225 )" />
  </g>
</svg>