<?xml version="1.0" encoding="utf-8"?>
<svg version="1.1" xmlns:xlink="http://www.w3.org/1999/xlink" width="53px" height="50px" xmlns="http://www.w3.org/2000/svg">
  <g transform="matrix(1 0 0 1 -140 -75 )">
    <path d="M 53 15.7894736842105  C 53 12.8684210526316  50.6415 10.5263157894737  47.7 11  L 37.1 11  L 37.1 5.26315789473684  C 37.1 2.34210526315789  34.7415 0  31.8 0  L 21.2 0  C 18.2585 0  15.9 2.3421052631579  15.9 5.26315789473684  L 15.9 11  L 5.3 11  C 2.3585 10.5263157894737  0.0264999999999994 12.8684210526316  0 15.7894736842105  L 0 44.7368421052632  C 0 47.6578947368421  2.3585 50  5.3 50  L 47.7 50  C 50.6415 50  53 47.6578947368421  53 44.7368421052632  L 53 15.7894736842105  Z M 31.8 6  L 31.8 11  L 21.2 11  L 21.2 6  L 31.8 6  Z " fill-rule="nonzero" fill="#2699fb" stroke="none" transform="matrix(1 0 0 1 140 75 )" />
  </g>
</svg>