<?xml version="1.0" encoding="utf-8"?>
<svg version="1.1" xmlns:xlink="http://www.w3.org/1999/xlink" width="25px" height="25px" xmlns="http://www.w3.org/2000/svg">
  <g transform="matrix(1 0 0 1 -968 -1583 )">
    <path d="M 25 2.97619047619048  C 25 1.33333333333333  23.6666666666667 0  22.0238095238095 0  L 2.97619047619048 0  C 1.33333333333333 0  0 1.33333333333333  0 2.97619047619048  L 0 22.0238095238095  C 0 23.6666666666667  1.33333333333333 25  2.97619047619048 25  L 22.0238095238095 25  C 23.6666666666667 25  25 23.6666666666667  25 22.0238095238095  L 25 2.97619047619048  Z M 4.16666666666667 9.52380952380952  L 8 9.52380952380952  L 8 20.8333333333333  L 4.16666666666667 20.8333333333333  L 4.16666666666667 9.52380952380952  Z M 5.95238095238095 7.73809523809524  C 4.88095238095238 7.73809523809524  4.16666666666667 7.06547619047619  4.16666666666667 6.23214285714286  C 4.16666666666667 5.39880952380952  4.88095238095238 4.76190476190476  5.95238095238095 4.76190476190476  C 7.02380952380952 4.76190476190476  7.69642857142857 5.39880952380952  7.73809523809524 6.23214285714286  C 7.73809523809524 7.06547619047619  7.07142857142857 7.73809523809524  5.95238095238095 7.73809523809524  Z M 20.8333333333333 14.4404761904762  L 20.8333333333333 20.8333333333333  L 17.2619047619048 20.8333333333333  C 17.2619047619048 20.8333333333333  17.2619047619048 15.3214285714286  17.2619047619048 14.8809523809524  C 17.2619047619048 13.6904761904762  16.6666666666667 12.5  15.1785714285714 12.4761904761905  L 15.1309523809524 12.4761904761905  C 13.6904761904762 12.4761904761905  13.0952380952381 13.702380952381  13.0952380952381 14.8809523809524  C 13.0952380952381 15.422619047619  13.0952380952381 20.8333333333333  13.0952380952381 20.8333333333333  L 10 20.8333333333333  L 10 9.52380952380952  L 13.0952380952381 9.52380952380952  L 13.0952380952381 11.047619047619  C 13.0952380952381 11.047619047619  14.2440476190476 9.52380952380952  16.5535714285714 9.52380952380952  C 18.9166666666667 9.52380952380952  20.8333333333333 11.1488095238095  20.8333333333333 14.4404761904762  Z " fill-rule="nonzero" fill="#ffffff" stroke="none" transform="matrix(1 0 0 1 968 1583 )" />
  </g>
</svg>