<?xml version="1.0" encoding="utf-8"?>
<svg version="1.1" xmlns:xlink="http://www.w3.org/1999/xlink" width="14px" height="14px" viewBox="59 535.5  14 14" xmlns="http://www.w3.org/2000/svg">
  <path d="M 59.5 537.5  A 1.5 1.5 0 0 1 61 536 L 71 536  A 1.5 1.5 0 0 1 72.5 537.5 L 72.5 547.5  A 1.5 1.5 0 0 1 71 549 L 61 549  A 1.5 1.5 0 0 1 59.5 547.5 L 59.5 537.5  Z " fill-rule="nonzero" fill="#f0f0f0" stroke="none" />
  <path d="M 59.5 537.5  A 1.5 1.5 0 0 1 61 536 L 71 536  A 1.5 1.5 0 0 1 72.5 537.5 L 72.5 547.5  A 1.5 1.5 0 0 1 71 549 L 61 549  A 1.5 1.5 0 0 1 59.5 547.5 L 59.5 537.5  Z " stroke-width="1" stroke="#2699fb" fill="none" />
  <path d="M 62.5 543  L 65.5 546  " stroke-width="3" stroke="#2699fb" fill="none" />
  <path d="M 65.5 546  L 70.5 539  " stroke-width="3" stroke="#2699fb" fill="none" />
</svg>