<?xml version="1.0" encoding="utf-8"?>
<svg version="1.1" xmlns:xlink="http://www.w3.org/1999/xlink" width="14px" height="14px" viewBox="186 585.5  14 14" xmlns="http://www.w3.org/2000/svg">
  <path d="M 186.5 587.5  A 1.5 1.5 0 0 1 188 586 L 198 586  A 1.5 1.5 0 0 1 199.5 587.5 L 199.5 597.5  A 1.5 1.5 0 0 1 198 599 L 188 599  A 1.5 1.5 0 0 1 186.5 597.5 L 186.5 587.5  Z " fill-rule="nonzero" fill="#f0f0f0" stroke="none" />
  <path d="M 186.5 587.5  A 1.5 1.5 0 0 1 188 586 L 198 586  A 1.5 1.5 0 0 1 199.5 587.5 L 199.5 597.5  A 1.5 1.5 0 0 1 198 599 L 188 599  A 1.5 1.5 0 0 1 186.5 597.5 L 186.5 587.5  Z " stroke-width="1" stroke="#2699fb" fill="none" />
  <path d="M 189.5 593  L 192.5 596  " stroke-width="3" stroke="#2699fb" fill="none" />
  <path d="M 192.5 596  L 197.5 589  " stroke-width="3" stroke="#2699fb" fill="none" />
</svg>