<?xml version="1.0" encoding="utf-8"?>
<svg version="1.1" xmlns:xlink="http://www.w3.org/1999/xlink" width="17px" height="19px" xmlns="http://www.w3.org/2000/svg">
  <g transform="matrix(1 0 0 1 -338 -246 )">
    <path d="M 16.4392361111111 8.6650390625  C 16.8130787037037 8.90006510416667  17 9.17838541666667  17 9.5  C 17 9.82161458333333  16.8130787037037 10.0999348958333  16.4392361111111 10.3349609375  L 3.21701388888889 18.6474609375  C 2.8431712962963 18.8824869791667  2.40046296296296 19  1.88888888888889 19  C 1.37731481481482 19  0.934606481481482 18.8824869791667  0.560763888888889 18.6474609375  C 0.186921296296296 18.4124348958333  0 18.1341145833333  0 17.8125  L 0 1.1875  C 0 0.865885416666664  0.186921296296296 0.587565104166664  0.560763888888889 0.3525390625  C 0.934606481481482 0.117513020833332  1.37731481481482 0  1.88888888888889 0  C 2.40046296296296 0  2.8431712962963 0.117513020833332  3.21701388888889 0.3525390625  L 16.4392361111111 8.6650390625  Z " fill-rule="nonzero" fill="#2699fb" stroke="none" transform="matrix(1 0 0 1 338 246 )" />
  </g>
</svg>