<?xml version="1.0" encoding="utf-8"?>
<svg version="1.1" xmlns:xlink="http://www.w3.org/1999/xlink" width="26px" height="19px" xmlns="http://www.w3.org/2000/svg">
  <g transform="matrix(1 0 0 1 -981 -254 )">
    <path d="M 25.1423611111111 8.6650390625  C 25.7141203703704 8.90006510416667  26 9.17838541666667  26 9.5  C 26 9.82161458333333  25.7141203703704 10.0999348958333  25.1423611111111 10.3349609375  L 4.92013888888889 18.6474609375  C 4.34837962962963 18.8824869791667  3.6712962962963 19  2.88888888888889 19  C 2.10648148148148 19  1.42939814814815 18.8824869791667  0.857638888888889 18.6474609375  C 0.28587962962963 18.4124348958333  0 18.1341145833333  0 17.8125  L 0 1.1875  C 0 0.865885416666664  0.28587962962963 0.587565104166664  0.857638888888889 0.3525390625  C 1.42939814814815 0.117513020833332  2.10648148148148 0  2.88888888888889 0  C 3.6712962962963 0  4.34837962962963 0.117513020833332  4.92013888888889 0.3525390625  L 25.1423611111111 8.6650390625  Z " fill-rule="nonzero" fill="#2699fb" stroke="none" transform="matrix(1 0 0 1 981 254 )" />
  </g>
</svg>