<?xml version="1.0" encoding="utf-8"?>
<svg version="1.1" xmlns:xlink="http://www.w3.org/1999/xlink" width="26px" height="19px" xmlns="http://www.w3.org/2000/svg">
  <g transform="matrix(1 0 0 1 -359 -254 )">
    <path d="M 25.1423611111111 0.3525390625  C 25.7141203703704 0.587565104166664  26 0.865885416666664  26 1.1875  L 26 17.8125  C 26 18.1341145833333  25.7141203703704 18.4124348958333  25.1423611111111 18.6474609375  C 24.5706018518519 18.8824869791667  23.8935185185185 19  23.1111111111111 19  C 22.3287037037037 19  21.6516203703704 18.8824869791667  21.0798611111111 18.6474609375  L 0.857638888888889 10.3349609375  C 0.28587962962963 10.0999348958333  0 9.82161458333333  0 9.5  C 0 9.17838541666667  0.28587962962963 8.90006510416667  0.857638888888889 8.6650390625  L 21.0798611111111 0.3525390625  C 21.6516203703704 0.117513020833332  22.3287037037037 0  23.1111111111111 0  C 23.8935185185185 0  24.5706018518519 0.117513020833332  25.1423611111111 0.3525390625  Z " fill-rule="nonzero" fill="#2699fb" stroke="none" transform="matrix(1 0 0 1 359 254 )" />
  </g>
</svg>