<?xml version="1.0" encoding="utf-8"?>
<svg version="1.1" xmlns:xlink="http://www.w3.org/1999/xlink" width="17px" height="19px" xmlns="http://www.w3.org/2000/svg">
  <g transform="matrix(1 0 0 1 -19 -246 )">
    <path d="M 16.4392361111111 0.3525390625  C 16.8130787037037 0.587565104166664  17 0.865885416666664  17 1.1875  L 17 17.8125  C 17 18.1341145833333  16.8130787037037 18.4124348958333  16.4392361111111 18.6474609375  C 16.0653935185185 18.8824869791667  15.6226851851852 19  15.1111111111111 19  C 14.599537037037 19  14.1568287037037 18.8824869791667  13.7829861111111 18.6474609375  L 0.560763888888889 10.3349609375  C 0.186921296296297 10.0999348958333  0 9.82161458333333  0 9.5  C 0 9.17838541666667  0.186921296296297 8.90006510416667  0.560763888888889 8.6650390625  L 13.7829861111111 0.3525390625  C 14.1568287037037 0.117513020833332  14.599537037037 0  15.1111111111111 0  C 15.6226851851852 0  16.0653935185185 0.117513020833332  16.4392361111111 0.3525390625  Z " fill-rule="nonzero" fill="#2699fb" stroke="none" transform="matrix(1 0 0 1 19 246 )" />
  </g>
</svg>