<?xml version="1.0" encoding="utf-8"?>
<svg version="1.1" xmlns:xlink="http://www.w3.org/1999/xlink" width="14px" height="14px" viewBox="567 2791  14 14" xmlns="http://www.w3.org/2000/svg">
  <path d="M 567.5 2793  A 1.5 1.5 0 0 1 569 2791.5 L 579 2791.5  A 1.5 1.5 0 0 1 580.5 2793 L 580.5 2803  A 1.5 1.5 0 0 1 579 2804.5 L 569 2804.5  A 1.5 1.5 0 0 1 567.5 2803 L 567.5 2793  Z " fill-rule="nonzero" fill="#f0f0f0" stroke="none" />
  <path d="M 567.5 2793  A 1.5 1.5 0 0 1 569 2791.5 L 579 2791.5  A 1.5 1.5 0 0 1 580.5 2793 L 580.5 2803  A 1.5 1.5 0 0 1 579 2804.5 L 569 2804.5  A 1.5 1.5 0 0 1 567.5 2803 L 567.5 2793  Z " stroke-width="1" stroke="#2699fb" fill="none" />
  <path d="M 570.5 2798.5  L 573.5 2801.5  " stroke-width="3" stroke="#2699fb" fill="none" />
  <path d="M 573.5 2801.5  L 578.5 2794.5  " stroke-width="3" stroke="#2699fb" fill="none" />
</svg>