<?xml version="1.0" encoding="utf-8"?>
<svg version="1.1" xmlns:xlink="http://www.w3.org/1999/xlink" width="98px" height="104px" xmlns="http://www.w3.org/2000/svg">
  <g transform="matrix(1 0 0 1 -220 -120 )">
    <path d="M 91.1944444444445 89.0021052631579  L 68.0555555555556 65.6842105263158  L 63.7544444444444 65.6842105263158  L 62.23 64.2063157894737  C 68.7633333333333 56.5431578947368  72.1388888888889 46.0884210526316  70.2877777777778 34.9768421052632  C 67.7288888888889 19.76  55.0977777777778 7.60842105263158  39.8533333333333 5.74736842105264  C 16.8233333333333 2.90105263157895  -2.50444444444443 22.3873684210526  0.272222222222236 45.541052631579  C 2.12333333333335 60.8673684210526  14.21 73.5663157894737  29.3455555555556 76.138947368421  C 40.3977777777778 78  50.7966666666667 74.6063157894737  58.4188888888889 68.0378947368421  L 59.8888888888889 69.5705263157895  L 59.8888888888889 73.8947368421053  L 83.0822222222222 97.1578947368421  C 85.3144444444444 99.4021052631579  88.9077777777778 99.4021052631579  91.14 97.1578947368421  L 91.1944444444445 97.1031578947368  C 93.4266666666667 94.858947368421  93.4266666666667 91.2463157894737  91.1944444444445 89.0021052631579  Z M 59.8888888888889 41.0526315789474  C 59.8888888888889 54.6821052631579  48.9455555555556 65.6842105263158  35.3888888888889 65.6842105263158  C 21.8322222222222 65.6842105263158  10.8888888888889 54.6821052631579  10.8888888888889 41.0526315789474  C 10.8888888888889 27.4231578947368  21.8322222222222 16.4210526315789  35.3888888888889 16.4210526315789  C 48.9455555555556 16.4210526315789  59.8888888888889 27.4231578947368  59.8888888888889 41.0526315789474  Z M 38.1111111111111 30.1052631578947  C 38.1111111111111 28.5726315789474  36.9133333333333 27.3684210526316  35.3888888888889 27.3684210526316  C 33.8644444444445 27.3684210526316  32.6666666666667 28.5726315789474  32.6666666666667 30.1052631578947  L 32.6666666666667 38.3157894736842  L 24.5 38.3157894736842  C 22.9755555555556 38.3157894736842  21.7777777777778 39.52  21.7777777777778 41.0526315789474  C 21.7777777777778 42.5852631578947  22.9755555555556 43.7894736842105  24.5 43.7894736842105  L 32.6666666666667 43.7894736842105  L 32.6666666666667 52  C 32.6666666666667 53.5326315789474  33.8644444444445 54.7368421052632  35.3888888888889 54.7368421052632  C 36.9133333333333 54.7368421052632  38.1111111111111 53.5326315789474  38.1111111111111 52  L 38.1111111111111 43.7894736842105  L 46.2777777777778 43.7894736842105  C 47.8022222222222 43.7894736842105  49 42.5852631578947  49 41.0526315789474  C 49 39.52  47.8022222222222 38.3157894736842  46.2777777777778 38.3157894736842  L 38.1111111111111 38.3157894736842  L 38.1111111111111 30.1052631578947  Z " fill-rule="nonzero" fill="#ffffff" stroke="none" transform="matrix(1 0 0 1 220 120 )" />
  </g>
</svg>