<?xml version="1.0" encoding="utf-8"?>
<svg version="1.1" xmlns:xlink="http://www.w3.org/1999/xlink" width="26px" height="26px" xmlns="http://www.w3.org/2000/svg">
  <g transform="matrix(1 0 0 1 -579 -1466 )">
    <path d="M 11.644775390625 23.21236328125  C 11.4268391927083 24.1888359375  10.8915201822917 24.91130078125  10.0176595052083 25.3589375  C 8.90681966145834 25.92525  7.77482096354167 25.90651171875  6.72322591145834 25.24234375  C 5.63142903645834 24.5594375  5.15535481770834 23.52466796875  5.23575846354167 22.25462890625  C 5.25480143229167 22.0401796875  5.195556640625 21.9610625  5.017822265625 21.86320703125  C 3.09236653645834 20.86799609375  1.56681315104167 19.48136328125  0.515218098958335 17.60753515625  C 0.316324869791668 17.23693359375  0.157633463541668 16.84551171875  0.0581868489583349 16.4353515625  C -0.0814615885416651 15.8690390625  0.138590494791668 15.59629296875  0.733154296875002 15.53799609375  C 1.44832356770834 15.45887890625  2.08308919270833 15.1861328125  2.40047200520833 14.52196484375  C 2.54012044270833 14.2283984375  2.618408203125 13.8786171875  2.618408203125 13.5454921875  C 2.65861002604167 12.70643359375  2.618408203125 11.867375  2.65861002604167 11.026234375  C 2.87654622395833 7.78451171875  4.24552408854167 5.0924453125  6.74650065104167 2.98334765625  C 9.04646809895834 1.03456640625  11.7442220052083 0.11847265625  14.7784016927083 0.21424609375  C 20.0765787760417 0.40995703125  24.619384765625 4.080578125  25.6900227864583 9.2148671875  C 26.6612141927083 13.8619609375  25.1949055989583 17.74703125  21.4434407552083 20.77222265625  C 21.2255045572917 20.94711328125  20.9864095052083 21.1240859375  20.728271484375 21.28023828125  C 20.588623046875 21.37809375  20.550537109375 21.45512890625  20.6097819010417 21.61128125  C 21.1048990885417 23.09576953125  20.410888671875 24.734328125  19.0228678385417 25.4380546875  C 17.1376139322917 26.35623046875  14.9561360677083 25.41931640625  14.380615234375 23.4268125  C 14.361572265625 23.3476953125  14.2621256510417 23.251921875  14.202880859375 23.251921875  C 13.371337890625 23.193625  12.5165201822917 23.21236328125  11.644775390625 23.21236328125  Z M 11.6849772135417 21.90484765625  C 12.577880859375 21.90484765625  13.4707845052083 21.94440625  14.3636881510417 21.886109375  C 15.1761881510417 21.84655078125  16.031005859375 21.769515625  16.824462890625 21.5738046875  C 23.134033203125 20.05183984375  26.5067545572917 13.19779296875  23.7476399739583 7.40141796875  C 22.080322265625 3.9056875  19.223876953125 1.91318359375  15.3158365885417 1.5030234375  C 12.3197428385417 1.19071875  9.64103190104167 2.0693359375  7.379150390625 4.0597578125  C 5.157470703125 6.03144140625  4.00642903645833 8.4903203125  3.92814127604167 11.4384765625  C 3.90909830729167 12.1213828125  3.92814127604167 12.825109375  3.92814127604167 13.508015625  C 3.906982421875 14.9945859375  3.05428059895833 16.14594921875  1.60489908854167 16.5935859375  C 1.58585611979167 16.5935859375  1.545654296875 16.63314453125  1.52449544270833 16.63314453125  C 2.08097330729167 18.07807421875  4.34073893229167 20.20591015625  5.74991861979167 20.7326640625  C 7.518798828125 18.3508203125  11.0882975260417 19.1919609375  11.6849772135417 21.90484765625  Z " fill-rule="nonzero" fill="#ffffff" stroke="none" transform="matrix(1 0 0 1 579 1466 )" />
  </g>
</svg>