<?xml version="1.0" encoding="utf-8"?>
<svg version="1.1" xmlns:xlink="http://www.w3.org/1999/xlink" width="14px" height="14px" viewBox="45 5376  14 14" xmlns="http://www.w3.org/2000/svg">
  <path d="M 45.5 5378  A 1.5 1.5 0 0 1 47 5376.5 L 57 5376.5  A 1.5 1.5 0 0 1 58.5 5378 L 58.5 5388  A 1.5 1.5 0 0 1 57 5389.5 L 47 5389.5  A 1.5 1.5 0 0 1 45.5 5388 L 45.5 5378  Z " fill-rule="nonzero" fill="#f0f0f0" stroke="none" />
  <path d="M 45.5 5378  A 1.5 1.5 0 0 1 47 5376.5 L 57 5376.5  A 1.5 1.5 0 0 1 58.5 5378 L 58.5 5388  A 1.5 1.5 0 0 1 57 5389.5 L 47 5389.5  A 1.5 1.5 0 0 1 45.5 5388 L 45.5 5378  Z " stroke-width="1" stroke="#2699fb" fill="none" />
</svg>