<?xml version="1.0" encoding="utf-8"?>
<svg version="1.1" xmlns:xlink="http://www.w3.org/1999/xlink" width="9px" height="4px" xmlns="http://www.w3.org/2000/svg">
  <g transform="matrix(1 0 0 1 -590 -1479 )">
    <path d="M 4.71096138332201 3.96165707236842  C 2.54297671110734 3.84364720394737  1.1113626231318 2.91431949013158  0.192857825237773 1.05777138157895  C -0.0284450365149443 0.602590460526316  0.175231933593751 0.14951685855263  0.596294900645383 0.0504728618421038  C 0.852849545686144 -0.00853207236842255  1.09177829908288 0.189555921052629  1.27587094514266 0.505653782894734  C 1.5147996985394 0.901829769736839  1.75372845193614 1.2958984375  2.06511920431386 1.6119962993421  C 3.7904981530231 3.36950041118421  6.61847454568614 2.8173828125  7.70344609799592 0.545692845394734  C 7.83270263671875 0.269634046052629  7.99721095872962 0.0525801809210496  8.30860171110734 0.0525801809210496  C 8.76687489385191 0.071546052631576  9.02538797129755 0.566766036184206  8.82366943359375 1.01983963815789  C 8.25376560377038 2.26526521381579  7.35484512992527 3.1735197368421  6.14257547129755 3.60762746710526  C 5.60988185716712 3.80360814144737  5.05956235139266 3.88157894736842  4.71096138332201 3.96165707236842  Z " fill-rule="nonzero" fill="#ffffff" stroke="none" transform="matrix(1 0 0 1 590 1479 )" />
  </g>
</svg>