<?xml version="1.0" encoding="utf-8"?>
<svg version="1.1" xmlns:xlink="http://www.w3.org/1999/xlink" width="13px" height="34px" xmlns="http://www.w3.org/2000/svg">
  <g transform="matrix(1 0 0 1 -341 -286 )">
    <path d="M 12.5711805555556 15.505859375  C 12.8570601851852 15.9264322916667  13 16.4244791666667  13 17  C 13 17.5755208333333  12.8570601851852 18.0735677083333  12.5711805555556 18.494140625  L 2.46006944444444 33.369140625  C 2.17418981481481 33.7897135416667  1.83564814814815 34  1.44444444444444 34  C 1.05324074074074 34  0.714699074074074 33.7897135416667  0.428819444444444 33.369140625  C 0.142939814814815 32.9485677083333  0 32.4505208333333  0 31.875  L 0 2.125  C 0 1.54947916666666  0.142939814814815 1.05143229166666  0.428819444444444 0.630859375  C 0.714699074074074 0.210286458333331  1.05324074074074 0  1.44444444444444 0  C 1.83564814814815 0  2.17418981481481 0.210286458333331  2.46006944444444 0.630859375  L 12.5711805555556 15.505859375  Z " fill-rule="nonzero" fill="#2699fb" stroke="none" transform="matrix(1 0 0 1 341 286 )" />
  </g>
</svg>