<?xml version="1.0" encoding="utf-8"?>
<svg version="1.1" xmlns:xlink="http://www.w3.org/1999/xlink" width="13px" height="34px" xmlns="http://www.w3.org/2000/svg">
  <g transform="matrix(1 0 0 1 -21 -286 )">
    <path d="M 12.5711805555556 0.630859375  C 12.8570601851852 1.05143229166666  13 1.54947916666666  13 2.125  L 13 31.875  C 13 32.4505208333333  12.8570601851852 32.9485677083333  12.5711805555556 33.369140625  C 12.2853009259259 33.7897135416667  11.9467592592593 34  11.5555555555556 34  C 11.1643518518519 34  10.8258101851852 33.7897135416667  10.5399305555556 33.369140625  L 0.428819444444444 18.494140625  C 0.142939814814815 18.0735677083333  0 17.5755208333333  0 17  C 0 16.4244791666667  0.142939814814815 15.9264322916667  0.428819444444444 15.505859375  L 10.5399305555556 0.630859375  C 10.8258101851852 0.210286458333331  11.1643518518519 0  11.5555555555556 0  C 11.9467592592593 0  12.2853009259259 0.210286458333331  12.5711805555556 0.630859375  Z " fill-rule="nonzero" fill="#2699fb" stroke="none" transform="matrix(1 0 0 1 21 286 )" />
  </g>
</svg>