<?xml version="1.0" encoding="utf-8"?>
<svg version="1.1" xmlns:xlink="http://www.w3.org/1999/xlink" width="25px" height="25px" xmlns="http://www.w3.org/2000/svg">
  <g transform="matrix(1 0 0 1 -637 -594 )">
    <path d="M 25 12.1129837702871  C 25 5.15605493133583  19.540625 0  12.5 0  C 5.459375 0  0 5.15293383270911  0 12.1098626716604  C 0 15.749063670412  1.49375 18.8951310861423  3.925 21.0674157303371  C 4.128125 21.2484394506866  4.253125 21.5043695380774  4.259375 21.7790262172285  L 4.328125 24.0012484394507  C 4.34464129912674 24.5407060077266  4.78727346111482 24.9694741724262  5.32765781228261 24.9694741724262  C 5.46663776274 24.9694741724262  5.60409182521286 24.9405405465707  5.73125 24.8845193508115  L 8.2125 23.7921348314607  C 8.421875 23.6985018726592  8.659375 23.6828963795256  8.88125 23.7421972534332  C 10.021875 24.0543071161049  11.234375 24.2228464419476  12.5 24.2228464419476  C 19.540625 24.2228464419476  25 19.0699126092385  25 12.1129837702871  Z " fill-rule="nonzero" fill="#2699fb" stroke="none" transform="matrix(1 0 0 1 637 594 )" />
  </g>
</svg>