<?xml version="1.0" encoding="utf-8"?>
<svg version="1.1" xmlns:xlink="http://www.w3.org/1999/xlink" width="15px" height="8px" xmlns="http://www.w3.org/2000/svg">
  <g transform="matrix(1 0 0 1 -642 -603 )">
    <path d="M 0.962090163934428 7.86870229007633  C 0.445696721311477 8.25954198473282  -0.230532786885244 7.64580152671756  0.116803278688525 7.09923664122137  L 3.72848360655738 1.40763358778626  C 4.06615908676041 0.875057924621497  4.65540307598153 0.551960909490366  5.28900555140407 0.551960909490366  C 5.68845682662292 0.551960909490366  6.07711036178831 0.680793666411732  6.39651639344262 0.91908396946565  L 9.27049180327869 3.05954198473283  C 9.53409654617839 3.25559044132969  9.89657880074886 3.25434447540186  10.1588114754098 3.05648854961832  L 14.0379098360656 0.131297709923664  C 14.5543032786885 -0.259541984732824  15.2305327868852 0.357251908396946  14.8862704918033 0.90381679389313  L 11.2715163934426 6.59236641221374  C 10.9338409132396 7.1249420753785  10.3445969240185 7.44803909050964  9.71099444859593 7.44803909050964  C 9.31154317337708 7.44803909050964  8.92288963821169 7.31920633358827  8.60348360655738 7.08091603053435  L 5.72950819672131 4.94045801526717  C 5.46590345382161 4.74440955867031  5.10342119925114 4.74565552459813  4.84118852459017 4.94351145038168  L 0.962090163934428 7.86870229007633  Z " fill-rule="nonzero" fill="#ffffff" stroke="none" transform="matrix(1 0 0 1 642 603 )" />
  </g>
</svg>