<?xml version="1.0" encoding="utf-8"?>
<svg version="1.1" xmlns:xlink="http://www.w3.org/1999/xlink" width="14px" height="11px" xmlns="http://www.w3.org/2000/svg">
  <g transform="matrix(1 0 0 1 -457 -510 )">
    <path d="M 3.62995419847328 6.42562962962963  C 3.57870462892054 6.44040713439683  3.52453705814565 6.44354643094954  3.47178625954199 6.4347962962963  L 0.341984732824428 5.46292592592593  C 0.341984732824428 5.46292592592593  -0.0320610687022898 5.3182962962963  0.0883816793893135 4.99033333333333  C 0.113175572519084 4.9227037037037  0.163190839694657 4.86515740740741  0.312809160305344 4.76625925925926  C 1.00629007633588 4.30558333333333  13.1485648854962 0.146259259259259  13.1485648854962 0.146259259259259  C 13.1485648854962 0.146259259259259  13.4914045801527 0.0361574074074064  13.6936030534351 0.109388888888889  C 13.7954422522186 0.139433169510276  13.8724178158437 0.219410248602555  13.8950534351145 0.318694444444445  C 13.9169012763054 0.404827260161464  13.92603762867 0.493443202733529  13.9221984732824 0.581981481481481  C 13.9212366412214 0.658574074074074  13.9115114503817 0.729564814814815  13.9041374045802 0.840888888888889  C 13.8301832061069 1.97806481481481  11.6171145038168 10.4651759259259  11.6171145038168 10.4651759259259  C 11.6171145038168 10.4651759259259  11.4847022900763 10.9618055555556  11.0103053435114 10.9788148148148  C 10.7747512198908 10.9860664561747  10.5462115830273 10.9018106222807  10.3770992366412 10.7453703703704  C 9.44615267175572 9.98219444444445  6.22850381679389 7.92132407407407  5.51749618320611 7.46808333333333  C 5.48504864070266 7.44701037709473  5.4637668987733 7.41357784818294  5.45914503816794 7.37641666666667  C 5.44920610687023 7.32864814814815  5.50370992366412 7.26947222222222  5.50370992366412 7.26947222222222  C 5.50370992366412 7.26947222222222  11.1064885496183 2.52317592592593  11.255572519084 2.02491666666667  C 11.2671145038168 1.98631481481481  11.2235114503817 1.96726851851852  11.1649465648855 1.98417592592593  C 10.7928244274809 2.11464814814815  4.34192366412214 5.99713888888889  3.62995419847328 6.42562962962963  Z " fill-rule="nonzero" fill="#ffffff" stroke="none" transform="matrix(1 0 0 1 457 510 )" />
  </g>
</svg>