<?xml version="1.0" encoding="utf-8"?>
<svg version="1.1" xmlns:xlink="http://www.w3.org/1999/xlink" width="25px" height="25px" xmlns="http://www.w3.org/2000/svg">
  <g transform="matrix(1 0 0 1 -1118 -278 )">
    <path d="M 25 12.5  C 25 5.596875  19.403125 0  12.5 0  C 5.596875 0  0 5.596875  0 12.5  C 0 14.8450083333333  0.6586890625 17.0313208333333  1.7822265625 18.9066572916667  L 0.1118978125 25  L 6.33544916666667 23.3662927083333  C 8.15557708333333 24.40110625  10.2567604166667 25  12.5 25  C 19.403125 25  25 19.403125  25 12.5  Z M 7.39339166666667 7.0556640625  C 7.67880833333333 6.74524739583333  8.01310208333333 6.669108125  8.22143541666667 6.669108125  C 8.42456041666667 6.669108125  8.63326770833333 6.66787104166667  8.81347708333333 6.67724604166667  C 9.03639375 6.68245447916667  9.27901979166667 6.69877927083333  9.51131145833333 7.2123209375  C 9.787353125 7.8227375  10.3884114583333 9.35406875  10.4654947916667 9.50927708333333  C 10.542578125 9.66448541666667  10.5972010416667 9.84733020833333  10.4899083333333 10.05045625  C 10.387825 10.2587885416667  10.3347333333333 10.3848791666667  10.1847333333333 10.5692541666667  C 10.029525 10.7484208333333  9.85945625 10.970946875  9.71883125 11.1063635416667  C 9.56362291666666 11.261571875  9.403353125 11.4317541666667  9.58251979166667 11.7411291666667  C 9.76168645833333 12.0505041666667  10.3839197916667 13.0647135416667  11.3037104166667 13.8834635416667  C 12.4860020833333 14.9397135416667  13.4835291666667 15.26430625  13.7939458333333 15.4195145833333  C 14.1043614583333 15.5747229166667  14.28413125 15.5505375  14.4632979166667 15.3422041666667  C 14.6476729166667 15.1390791666667  15.2376302083333 14.4420895833333  15.4459635416667 14.1316729166667  C 15.6490885416667 13.82125625  15.8564458333333 13.8749677083333  16.1376958333333 13.9770510416667  C 16.4231125 14.079134375  17.9451989583333 14.8289229166667  18.255615625 14.98413125  C 18.5660322916667 15.1393395833333  18.76953125 15.2161625  18.84765625 15.3422041666667  C 18.9278645833333 15.4724125  18.9279458333333 16.09226875  18.6706541666667 16.8151854166667  C 18.4133625 17.5370604166667  17.14991875 18.2351395833333  16.5832520833333 18.2840979166667  C 16.0113770833333 18.3372229166667  15.47766875 18.5411458333333  12.8662104166667 17.5130208333333  C 9.71621145833333 16.2723958333333  7.72967083333333 13.0460614583333  7.5744625 12.837728125  C 7.41925416666667 12.634603125  6.3130696875 11.16031875  6.3130696875 9.63948541666667  C 6.3130696875 8.11344375  7.11318364583333 7.36608020833333  7.39339166666667 7.0556640625  Z " fill-rule="nonzero" fill="#2699fb" stroke="none" transform="matrix(1 0 0 1 1118 278 )" />
  </g>
</svg>