<?xml version="1.0" encoding="utf-8"?>
<svg version="1.1" xmlns:xlink="http://www.w3.org/1999/xlink" width="14px" height="14px" viewBox="45 6485  14 14" xmlns="http://www.w3.org/2000/svg">
  <path d="M 45.5 6487  A 1.5 1.5 0 0 1 47 6485.5 L 57 6485.5  A 1.5 1.5 0 0 1 58.5 6487 L 58.5 6497  A 1.5 1.5 0 0 1 57 6498.5 L 47 6498.5  A 1.5 1.5 0 0 1 45.5 6497 L 45.5 6487  Z " fill-rule="nonzero" fill="#ffffff" stroke="none" />
  <path d="M 45.5 6487  A 1.5 1.5 0 0 1 47 6485.5 L 57 6485.5  A 1.5 1.5 0 0 1 58.5 6487 L 58.5 6497  A 1.5 1.5 0 0 1 57 6498.5 L 47 6498.5  A 1.5 1.5 0 0 1 45.5 6497 L 45.5 6487  Z " stroke-width="1" stroke="#2699fb" fill="none" />
  <path d="M 48.5 6492.5  L 51.5 6495.5  " stroke-width="3" stroke="#2699fb" fill="none" />
  <path d="M 51.5 6495.5  L 56.5 6488.5  " stroke-width="3" stroke="#2699fb" fill="none" />
</svg>