<?xml version="1.0" encoding="utf-8"?>
<svg version="1.1" xmlns:xlink="http://www.w3.org/1999/xlink" width="47px" height="50px" xmlns="http://www.w3.org/2000/svg">
  <g transform="matrix(1 0 0 1 -95 -94 )">
    <path d="M 43.7361111111111 42.7894736842105  L 32.6388888888889 31.5789473684211  L 30.5761111111111 31.5789473684211  L 29.845 30.8684210526316  C 32.9783333333333 27.1842105263158  34.5972222222222 22.1578947368421  33.7094444444445 16.8157894736842  C 32.4822222222222 9.5  26.4244444444444 3.65789473684211  19.1133333333333 2.76315789473684  C 8.06833333333334 1.39473684210526  -1.20111111111111 10.7631578947368  0.130555555555562 21.8947368421053  C 1.01833333333334 29.2631578947368  6.81500000000001 35.3684210526316  14.0738888888889 36.6052631578947  C 19.3744444444445 37.5  24.3616666666667 35.8684210526316  28.0172222222222 32.7105263157895  L 28.7222222222222 33.4473684210526  L 28.7222222222222 35.5263157894737  L 39.8455555555556 46.7105263157895  C 40.9161111111111 47.7894736842105  42.6394444444445 47.7894736842105  43.71 46.7105263157895  L 43.7361111111111 46.6842105263158  C 44.8066666666667 45.6052631578947  44.8066666666667 43.8684210526316  43.7361111111111 42.7894736842105  Z M 28.7222222222222 19.7368421052632  C 28.7222222222222 26.2894736842105  23.4738888888889 31.5789473684211  16.9722222222222 31.5789473684211  C 10.4705555555556 31.5789473684211  5.22222222222222 26.2894736842105  5.22222222222222 19.7368421052632  C 5.22222222222222 13.1842105263158  10.4705555555556 7.89473684210526  16.9722222222222 7.89473684210526  C 23.4738888888889 7.89473684210526  28.7222222222222 13.1842105263158  28.7222222222222 19.7368421052632  Z M 18.2777777777778 14.4736842105263  C 18.2777777777778 13.7368421052632  17.7033333333333 13.1578947368421  16.9722222222222 13.1578947368421  C 16.2411111111111 13.1578947368421  15.6666666666667 13.7368421052632  15.6666666666667 14.4736842105263  L 15.6666666666667 18.4210526315789  L 11.75 18.4210526315789  C 11.0188888888889 18.4210526315789  10.4444444444444 19  10.4444444444444 19.7368421052632  C 10.4444444444444 20.4736842105263  11.0188888888889 21.0526315789474  11.75 21.0526315789474  L 15.6666666666667 21.0526315789474  L 15.6666666666667 25  C 15.6666666666667 25.7368421052632  16.2411111111111 26.3157894736842  16.9722222222222 26.3157894736842  C 17.7033333333333 26.3157894736842  18.2777777777778 25.7368421052632  18.2777777777778 25  L 18.2777777777778 21.0526315789474  L 22.1944444444444 21.0526315789474  C 22.9255555555556 21.0526315789474  23.5 20.4736842105263  23.5 19.7368421052632  C 23.5 19  22.9255555555556 18.4210526315789  22.1944444444444 18.4210526315789  L 18.2777777777778 18.4210526315789  L 18.2777777777778 14.4736842105263  Z " fill-rule="nonzero" fill="#ffffff" stroke="none" transform="matrix(1 0 0 1 95 94 )" />
  </g>
</svg>