<?xml version="1.0" encoding="utf-8"?>
<svg version="1.1" xmlns:xlink="http://www.w3.org/1999/xlink" width="14px" height="14px" viewBox="567 1307  14 14" xmlns="http://www.w3.org/2000/svg">
  <path d="M 567.5 1309  A 1.5 1.5 0 0 1 569 1307.5 L 579 1307.5  A 1.5 1.5 0 0 1 580.5 1309 L 580.5 1319  A 1.5 1.5 0 0 1 579 1320.5 L 569 1320.5  A 1.5 1.5 0 0 1 567.5 1319 L 567.5 1309  Z " fill-rule="nonzero" fill="#ffffff" stroke="none" />
  <path d="M 567.5 1309  A 1.5 1.5 0 0 1 569 1307.5 L 579 1307.5  A 1.5 1.5 0 0 1 580.5 1309 L 580.5 1319  A 1.5 1.5 0 0 1 579 1320.5 L 569 1320.5  A 1.5 1.5 0 0 1 567.5 1319 L 567.5 1309  Z " stroke-width="1" stroke="#2699fb" fill="none" />
  <path d="M 570.5 1314.5  L 573.5 1317.5  " stroke-width="3" stroke="#2699fb" fill="none" />
  <path d="M 573.5 1317.5  L 578.5 1310.5  " stroke-width="3" stroke="#2699fb" fill="none" />
</svg>