<?xml version="1.0" encoding="utf-8"?>
<svg version="1.1" xmlns:xlink="http://www.w3.org/1999/xlink" width="14px" height="14px" viewBox="212 3712.5  14 14" xmlns="http://www.w3.org/2000/svg">
  <path d="M 212.5 3714.5  A 1.5 1.5 0 0 1 214 3713 L 224 3713  A 1.5 1.5 0 0 1 225.5 3714.5 L 225.5 3724.5  A 1.5 1.5 0 0 1 224 3726 L 214 3726  A 1.5 1.5 0 0 1 212.5 3724.5 L 212.5 3714.5  Z " fill-rule="nonzero" fill="#ffffff" stroke="none" />
  <path d="M 212.5 3714.5  A 1.5 1.5 0 0 1 214 3713 L 224 3713  A 1.5 1.5 0 0 1 225.5 3714.5 L 225.5 3724.5  A 1.5 1.5 0 0 1 224 3726 L 214 3726  A 1.5 1.5 0 0 1 212.5 3724.5 L 212.5 3714.5  Z " stroke-width="1" stroke="#2699fb" fill="none" />
  <path d="M 215.5 3720  L 218.5 3723  " stroke-width="3" stroke="#2699fb" fill="none" />
  <path d="M 218.5 3723  L 223.5 3716  " stroke-width="3" stroke="#2699fb" fill="none" />
</svg>