<?xml version="1.0" encoding="utf-8"?>
<svg version="1.1" xmlns:xlink="http://www.w3.org/1999/xlink" width="14px" height="14px" viewBox="74 6892  14 14" xmlns="http://www.w3.org/2000/svg">
  <path d="M 74.5 6894  A 1.5 1.5 0 0 1 76 6892.5 L 86 6892.5  A 1.5 1.5 0 0 1 87.5 6894 L 87.5 6904  A 1.5 1.5 0 0 1 86 6905.5 L 76 6905.5  A 1.5 1.5 0 0 1 74.5 6904 L 74.5 6894  Z " fill-rule="nonzero" fill="#ffffff" stroke="none" />
  <path d="M 74.5 6894  A 1.5 1.5 0 0 1 76 6892.5 L 86 6892.5  A 1.5 1.5 0 0 1 87.5 6894 L 87.5 6904  A 1.5 1.5 0 0 1 86 6905.5 L 76 6905.5  A 1.5 1.5 0 0 1 74.5 6904 L 74.5 6894  Z " stroke-width="1" stroke="#2699fb" fill="none" />
</svg>