<?xml version="1.0" encoding="utf-8"?>
<svg version="1.1" xmlns:xlink="http://www.w3.org/1999/xlink" width="14px" height="14px" viewBox="567 1363  14 14" xmlns="http://www.w3.org/2000/svg">
  <path d="M 567.5 1365  A 1.5 1.5 0 0 1 569 1363.5 L 579 1363.5  A 1.5 1.5 0 0 1 580.5 1365 L 580.5 1375  A 1.5 1.5 0 0 1 579 1376.5 L 569 1376.5  A 1.5 1.5 0 0 1 567.5 1375 L 567.5 1365  Z " fill-rule="nonzero" fill="#ffffff" stroke="none" />
  <path d="M 567.5 1365  A 1.5 1.5 0 0 1 569 1363.5 L 579 1363.5  A 1.5 1.5 0 0 1 580.5 1365 L 580.5 1375  A 1.5 1.5 0 0 1 579 1376.5 L 569 1376.5  A 1.5 1.5 0 0 1 567.5 1375 L 567.5 1365  Z " stroke-width="1" stroke="#2699fb" fill="none" />
  <path d="M 570.5 1370.5  L 573.5 1373.5  " stroke-width="3" stroke="#2699fb" fill="none" />
  <path d="M 573.5 1373.5  L 578.5 1366.5  " stroke-width="3" stroke="#2699fb" fill="none" />
</svg>