<?xml version="1.0" encoding="utf-8"?>
<svg version="1.1" xmlns:xlink="http://www.w3.org/1999/xlink" width="14px" height="14px" viewBox="212 2586.5  14 14" xmlns="http://www.w3.org/2000/svg">
  <path d="M 212.5 2588.5  A 1.5 1.5 0 0 1 214 2587 L 224 2587  A 1.5 1.5 0 0 1 225.5 2588.5 L 225.5 2598.5  A 1.5 1.5 0 0 1 224 2600 L 214 2600  A 1.5 1.5 0 0 1 212.5 2598.5 L 212.5 2588.5  Z " fill-rule="nonzero" fill="#ffffff" stroke="none" />
  <path d="M 212.5 2588.5  A 1.5 1.5 0 0 1 214 2587 L 224 2587  A 1.5 1.5 0 0 1 225.5 2588.5 L 225.5 2598.5  A 1.5 1.5 0 0 1 224 2600 L 214 2600  A 1.5 1.5 0 0 1 212.5 2598.5 L 212.5 2588.5  Z " stroke-width="1" stroke="#2699fb" fill="none" />
  <path d="M 215.5 2594  L 218.5 2597  " stroke-width="3" stroke="#2699fb" fill="none" />
  <path d="M 218.5 2597  L 223.5 2590  " stroke-width="3" stroke="#2699fb" fill="none" />
</svg>