<?xml version="1.0" encoding="utf-8"?>
<svg version="1.1" xmlns:xlink="http://www.w3.org/1999/xlink" width="14px" height="14px" viewBox="73 4938  14 14" xmlns="http://www.w3.org/2000/svg">
  <path d="M 73.5 4940  A 1.5 1.5 0 0 1 75 4938.5 L 85 4938.5  A 1.5 1.5 0 0 1 86.5 4940 L 86.5 4950  A 1.5 1.5 0 0 1 85 4951.5 L 75 4951.5  A 1.5 1.5 0 0 1 73.5 4950 L 73.5 4940  Z " fill-rule="nonzero" fill="#f0f0f0" stroke="none" />
  <path d="M 73.5 4940  A 1.5 1.5 0 0 1 75 4938.5 L 85 4938.5  A 1.5 1.5 0 0 1 86.5 4940 L 86.5 4950  A 1.5 1.5 0 0 1 85 4951.5 L 75 4951.5  A 1.5 1.5 0 0 1 73.5 4950 L 73.5 4940  Z " stroke-width="1" stroke="#2699fb" fill="none" />
  <path d="M 76.5 4945.5  L 79.5 4948.5  " stroke-width="3" stroke="#2699fb" fill="none" />
  <path d="M 79.5 4948.5  L 84.5 4941.5  " stroke-width="3" stroke="#2699fb" fill="none" />
</svg>