<?xml version="1.0" encoding="utf-8"?>
<svg version="1.1" xmlns:xlink="http://www.w3.org/1999/xlink" width="14px" height="14px" viewBox="73 1421  14 14" xmlns="http://www.w3.org/2000/svg">
  <path d="M 73.5 1423  A 1.5 1.5 0 0 1 75 1421.5 L 85 1421.5  A 1.5 1.5 0 0 1 86.5 1423 L 86.5 1433  A 1.5 1.5 0 0 1 85 1434.5 L 75 1434.5  A 1.5 1.5 0 0 1 73.5 1433 L 73.5 1423  Z " fill-rule="nonzero" fill="#ffffff" stroke="none" />
  <path d="M 73.5 1423  A 1.5 1.5 0 0 1 75 1421.5 L 85 1421.5  A 1.5 1.5 0 0 1 86.5 1423 L 86.5 1433  A 1.5 1.5 0 0 1 85 1434.5 L 75 1434.5  A 1.5 1.5 0 0 1 73.5 1433 L 73.5 1423  Z " stroke-width="1" stroke="#2699fb" fill="none" />
  <path d="M 76.5 1428.5  L 79.5 1431.5  " stroke-width="3" stroke="#2699fb" fill="none" />
  <path d="M 79.5 1431.5  L 84.5 1424.5  " stroke-width="3" stroke="#2699fb" fill="none" />
</svg>