<?xml version="1.0" encoding="utf-8"?>
<svg version="1.1" xmlns:xlink="http://www.w3.org/1999/xlink" width="14px" height="14px" viewBox="769 972.5  14 14" xmlns="http://www.w3.org/2000/svg">
  <path d="M 769.5 974.5  A 1.5 1.5 0 0 1 771 973 L 781 973  A 1.5 1.5 0 0 1 782.5 974.5 L 782.5 984.5  A 1.5 1.5 0 0 1 781 986 L 771 986  A 1.5 1.5 0 0 1 769.5 984.5 L 769.5 974.5  Z " fill-rule="nonzero" fill="#f0f0f0" stroke="none" />
  <path d="M 769.5 974.5  A 1.5 1.5 0 0 1 771 973 L 781 973  A 1.5 1.5 0 0 1 782.5 974.5 L 782.5 984.5  A 1.5 1.5 0 0 1 781 986 L 771 986  A 1.5 1.5 0 0 1 769.5 984.5 L 769.5 974.5  Z " stroke-width="1" stroke="#2699fb" fill="none" />
  <path d="M 772.5 980  L 775.5 983  " stroke-width="3" stroke="#2699fb" fill="none" />
  <path d="M 775.5 983  L 780.5 976  " stroke-width="3" stroke="#2699fb" fill="none" />
</svg>