<?xml version="1.0" encoding="utf-8"?>
<svg version="1.1" xmlns:xlink="http://www.w3.org/1999/xlink" width="14px" height="14px" viewBox="567 1261  14 14" xmlns="http://www.w3.org/2000/svg">
  <path d="M 567.5 1263  A 1.5 1.5 0 0 1 569 1261.5 L 579 1261.5  A 1.5 1.5 0 0 1 580.5 1263 L 580.5 1273  A 1.5 1.5 0 0 1 579 1274.5 L 569 1274.5  A 1.5 1.5 0 0 1 567.5 1273 L 567.5 1263  Z " fill-rule="nonzero" fill="#f0f0f0" stroke="none" />
  <path d="M 567.5 1263  A 1.5 1.5 0 0 1 569 1261.5 L 579 1261.5  A 1.5 1.5 0 0 1 580.5 1263 L 580.5 1273  A 1.5 1.5 0 0 1 579 1274.5 L 569 1274.5  A 1.5 1.5 0 0 1 567.5 1273 L 567.5 1263  Z " stroke-width="1" stroke="#2699fb" fill="none" />
  <path d="M 570.5 1268.5  L 573.5 1271.5  " stroke-width="3" stroke="#2699fb" fill="none" />
  <path d="M 573.5 1271.5  L 578.5 1264.5  " stroke-width="3" stroke="#2699fb" fill="none" />
</svg>