<?xml version="1.0" encoding="utf-8"?>
<svg version="1.1" xmlns:xlink="http://www.w3.org/1999/xlink" width="14px" height="14px" viewBox="45 1121  14 14" xmlns="http://www.w3.org/2000/svg">
  <path d="M 45.5 1123  A 1.5 1.5 0 0 1 47 1121.5 L 57 1121.5  A 1.5 1.5 0 0 1 58.5 1123 L 58.5 1133  A 1.5 1.5 0 0 1 57 1134.5 L 47 1134.5  A 1.5 1.5 0 0 1 45.5 1133 L 45.5 1123  Z " fill-rule="nonzero" fill="#f0f0f0" stroke="none" />
  <path d="M 45.5 1123  A 1.5 1.5 0 0 1 47 1121.5 L 57 1121.5  A 1.5 1.5 0 0 1 58.5 1123 L 58.5 1133  A 1.5 1.5 0 0 1 57 1134.5 L 47 1134.5  A 1.5 1.5 0 0 1 45.5 1133 L 45.5 1123  Z " stroke-width="1" stroke="#2699fb" fill="none" />
</svg>