<?xml version="1.0" encoding="utf-8"?>
<svg version="1.1" xmlns:xlink="http://www.w3.org/1999/xlink" width="25px" height="21px" xmlns="http://www.w3.org/2000/svg">
  <g transform="matrix(1 0 0 1 -38 -417 )">
    <path d="M 3.16116898148148 0.5126953125  C 3.5228587962963 0.854492187499999  3.7037037037037 1.26692708333333  3.7037037037037 1.75  C 3.7037037037037 2.40625  3.39506172839506 2.90755208333333  3 3.25390625  L 3 20.5625  C 2.77777777777778 20.6809895833333  2.7319637345679 20.7835286458333  2.64033564814815 20.8701171875  C 2.5487075617284 20.9567057291667  2.44020061728395 21  2.31481481481481 21  L 1.38888888888889 21  C 1.26350308641975 21  1.15499614197531 20.9567057291667  1.06336805555556 20.8701171875  C 0.971739969135803 20.7835286458333  0.925925925925926 20.6809895833333  1 20.5625  L 1 3.25390625  C 0.308641975308642 2.90755208333333  0 2.40625  0 1.75  C 0 1.26692708333333  0.180844907407407 0.854492187499999  0.542534722222222 0.5126953125  C 0.904224537037037 0.170898437500001  1.34066358024691 0  1.85185185185185 0  C 2.36304012345679 0  2.79947916666667 0.170898437500001  3.16116898148148 0.5126953125  Z M 24.7251157407407 2.009765625  C 24.9083719135803 2.18294270833333  25 2.38802083333333  25 2.625  L 25 13.056640625  C 25 13.2845052083333  24.9397183641975 13.4599609375  24.8191550925926 13.5830078125  C 24.6985918209877 13.7060546875  24.5081018518519 13.8313802083333  24.2476851851852 13.958984375  C 22.1739969135803 15.0162760416667  20.3944830246914 15.544921875  18.9091435185185 15.544921875  C 18.3207947530864 15.544921875  17.725212191358 15.4446614583333  17.1223958333333 15.244140625  C 16.5195794753086 15.0436197916667  15.9963348765432 14.8248697916667  15.552662037037 14.587890625  C 15.1089891975309 14.3509114583333  14.5519868827161 14.1321614583333  13.8816550925926 13.931640625  C 13.2113233024691 13.7311197916667  12.524112654321 13.630859375  11.8200231481481 13.630859375  C 9.9681712962963 13.630859375  7.73051697530864 14.2962239583333  5.10706018518519 15.626953125  C 4.94309413580247 15.708984375  4.78395061728395 15.75  4.62962962962963 15.75  C 4.37885802469136 15.75  4.16184413580247 15.6634114583333  3.97858796296296 15.490234375  C 3.79533179012346 15.3170572916667  3.7037037037037 15.1119791666667  4 14.875  L 4 4.73046875  C 3.7037037037037 4.43880208333333  3.85320216049383 4.18815104166667  4.15219907407407 3.978515625  C 4.35474537037037 3.85091145833333  4.73572530864198 3.65494791666667  5.29513888888889 3.390625  C 7.57137345679012 2.296875  9.60165895061728 1.75  11.3859953703704 1.75  C 12.4180169753086 1.75  13.3825231481481 1.88216145833333  14.2795138888889 2.146484375  C 15.1765046296296 2.41080729166667  16.2326388888889 2.81184895833333  17.4479166666667 3.349609375  C 17.8144290123457 3.52278645833333  18.2388117283951 3.609375  18.7210648148148 3.609375  C 19.2418981481481 3.609375  19.8085455246914 3.513671875  20.4210069444444 3.322265625  C 21.0334683641975 3.130859375  21.5639467592593 2.91666666666667  22.0124421296296 2.6796875  C 22.4609375 2.44270833333333  22.8853202160494 2.228515625  23.2855902777778 2.037109375  C 23.6858603395062 1.845703125  23.9486882716049 1.75  24.0740740740741 1.75  C 24.3248456790123 1.75  24.5418595679012 1.83658854166667  24.7251157407407 2.009765625  Z " fill-rule="nonzero" fill="#ffffff" stroke="none" transform="matrix(1 0 0 1 38 417 )" />
  </g>
</svg>