<?xml version="1.0" encoding="utf-8"?>
<svg version="1.1" xmlns:xlink="http://www.w3.org/1999/xlink" width="31px" height="31px" xmlns="http://www.w3.org/2000/svg">
  <g transform="matrix(1 0 0 1 -1239 -23 )">
    <path d="M 31 15.5  C 31 6.944  24.056 0  15.4845 0  C 6.9285 0  0 6.944  0 15.5  C 0 24.056  6.9285 31  15.4845 31  C 24.056 31  31 24.056  31 15.5  Z M 19.5145 3.782  C 22.3665 4.7585  24.738 6.7425  26.226 9.3  L 21.6535 9.3  C 21.1575 7.3625  20.4445 5.5025  19.5145 3.782  Z M 12.5395 9.3  C 13.206 7.0835  14.2135 5.022  15.5 3.162  C 16.7865 5.022  17.794 7.0835  18.4605 9.3  L 12.5395 9.3  Z M 8.742 18.6  L 3.503 18.6  C 3.255 17.608  3.1 16.5695  3.1 15.5  C 3.1 14.4305  3.255 13.392  3.503 12.4  L 8.742 12.4  C 8.618 13.423  8.525 14.446  8.525 15.5  C 8.525 16.554  8.618 17.577  8.742 18.6  Z M 11.4855 27.218  C 8.6335 26.2415  6.262 24.273  4.774 21.7  L 9.3465 21.7  C 9.8425 23.6375  10.5555 25.4975  11.4855 27.218  Z M 11.4855 3.782  C 10.5555 5.5025  9.8425 7.3625  9.3465 9.3  L 4.774 9.3  C 6.262 6.727  8.6335 4.7585  11.4855 3.782  Z M 18.4605 21.7  C 17.794 23.9165  16.7865 25.978  15.5 27.838  C 14.2135 25.978  13.206 23.9165  12.5395 21.7  L 18.4605 21.7  Z M 19.375 15.5  C 19.375 16.554  19.2665 17.577  19.127 18.6  L 11.873 18.6  C 11.7335 17.577  11.625 16.554  11.625 15.5  C 11.625 14.446  11.7335 13.4075  11.873 12.4  L 19.127 12.4  C 19.2665 13.4075  19.375 14.446  19.375 15.5  Z M 26.226 21.7  C 24.738 24.2575  22.3665 26.2415  19.5145 27.218  C 20.4445 25.4975  21.1575 23.6375  21.6535 21.7  L 26.226 21.7  Z M 27.497 18.6  L 22.258 18.6  C 22.382 17.577  22.475 16.554  22.475 15.5  C 22.475 14.446  22.382 13.423  22.258 12.4  L 27.497 12.4  C 27.745 13.392  27.9 14.4305  27.9 15.5  C 27.9 16.5695  27.745 17.608  27.497 18.6  Z " fill-rule="nonzero" fill="#f1f9ff" stroke="none" transform="matrix(1 0 0 1 1239 23 )" />
  </g>
</svg>