<?xml version="1.0" encoding="utf-8"?>
<svg version="1.1" xmlns:xlink="http://www.w3.org/1999/xlink" width="306px" height="36px" viewBox="-2 0  306 36" xmlns="http://www.w3.org/2000/svg">
  <defs>
    <filter x="-2px" y="0px" width="306px" height="36px" filterUnits="userSpaceOnUse" id="filter268">
      <feOffset dx="0" dy="2" in="SourceAlpha" result="shadowOffsetInner" />
      <feGaussianBlur stdDeviation="1" in="shadowOffsetInner" result="shadowGaussian" />
      <feComposite in2="shadowGaussian" operator="atop" in="SourceAlpha" result="shadowComposite" />
      <feColorMatrix type="matrix" values="0 0 0 0 0  0 0 0 0 0  0 0 0 0 0  0 0 0 0.349019607843137 0  " in="shadowComposite" />
    </filter>
    <g id="widget269">
      <path d="M 1.5 16  A 14.5 14.5 0 0 1 16 1.5 L 286 1.5  A 14.5 14.5 0 0 1 300.5 16 A 14.5 14.5 0 0 1 286 30.5 L 16 30.5  A 14.5 14.5 0 0 1 1.5 16 Z " fill-rule="nonzero" fill="#f0f0f0" stroke="none" />
      <path d="M 1 16  A 15 15 0 0 1 16 1 L 286 1  A 15 15 0 0 1 301 16 A 15 15 0 0 1 286 31 L 16 31  A 15 15 0 0 1 1 16 Z " stroke-width="2" stroke="#2699fb" fill="none" />
    </g>
  </defs>
  <use xlink:href="#widget269" filter="url(#filter268)" />
  <use xlink:href="#widget269" />
</svg>