<?xml version="1.0" encoding="utf-8"?>
<svg version="1.1" xmlns:xlink="http://www.w3.org/1999/xlink" width="14px" height="14px" viewBox="567 84  14 14" xmlns="http://www.w3.org/2000/svg">
  <path d="M 567.5 86  A 1.5 1.5 0 0 1 569 84.5 L 579 84.5  A 1.5 1.5 0 0 1 580.5 86 L 580.5 96  A 1.5 1.5 0 0 1 579 97.5 L 569 97.5  A 1.5 1.5 0 0 1 567.5 96 L 567.5 86  Z " fill-rule="nonzero" fill="#f0f0f0" stroke="none" />
  <path d="M 567.5 86  A 1.5 1.5 0 0 1 569 84.5 L 579 84.5  A 1.5 1.5 0 0 1 580.5 86 L 580.5 96  A 1.5 1.5 0 0 1 579 97.5 L 569 97.5  A 1.5 1.5 0 0 1 567.5 96 L 567.5 86  Z " stroke-width="1" stroke="#2699fb" fill="none" />
  <path d="M 570.5 91.5  L 573.5 94.5  " stroke-width="3" stroke="#2699fb" fill="none" />
  <path d="M 573.5 94.5  L 578.5 87.5  " stroke-width="3" stroke="#2699fb" fill="none" />
</svg>