<?xml version="1.0" encoding="utf-8"?>
<svg version="1.1" xmlns:xlink="http://www.w3.org/1999/xlink" width="14px" height="14px" viewBox="42 227  14 14" xmlns="http://www.w3.org/2000/svg">
  <path d="M 42.5 229  A 1.5 1.5 0 0 1 44 227.5 L 54 227.5  A 1.5 1.5 0 0 1 55.5 229 L 55.5 239  A 1.5 1.5 0 0 1 54 240.5 L 44 240.5  A 1.5 1.5 0 0 1 42.5 239 L 42.5 229  Z " fill-rule="nonzero" fill="#ffffff" stroke="none" />
  <path d="M 42.5 229  A 1.5 1.5 0 0 1 44 227.5 L 54 227.5  A 1.5 1.5 0 0 1 55.5 229 L 55.5 239  A 1.5 1.5 0 0 1 54 240.5 L 44 240.5  A 1.5 1.5 0 0 1 42.5 239 L 42.5 229  Z " stroke-width="1" stroke="#2699fb" fill="none" />
</svg>