<?xml version="1.0" encoding="utf-8"?>
<svg version="1.1" xmlns:xlink="http://www.w3.org/1999/xlink" width="14px" height="14px" viewBox="42 258  14 14" xmlns="http://www.w3.org/2000/svg">
  <path d="M 42.5 260  A 1.5 1.5 0 0 1 44 258.5 L 54 258.5  A 1.5 1.5 0 0 1 55.5 260 L 55.5 270  A 1.5 1.5 0 0 1 54 271.5 L 44 271.5  A 1.5 1.5 0 0 1 42.5 270 L 42.5 260  Z " fill-rule="nonzero" fill="#f0f0f0" stroke="none" />
  <path d="M 42.5 260  A 1.5 1.5 0 0 1 44 258.5 L 54 258.5  A 1.5 1.5 0 0 1 55.5 260 L 55.5 270  A 1.5 1.5 0 0 1 54 271.5 L 44 271.5  A 1.5 1.5 0 0 1 42.5 270 L 42.5 260  Z " stroke-width="1" stroke="#2699fb" fill="none" />
  <path d="M 45.5 265.5  L 48.5 268.5  " stroke-width="3" stroke="#2699fb" fill="none" />
  <path d="M 48.5 268.5  L 53.5 261.5  " stroke-width="3" stroke="#2699fb" fill="none" />
</svg>