<?xml version="1.0" encoding="utf-8"?>
<svg version="1.1" xmlns:xlink="http://www.w3.org/1999/xlink" width="30px" height="36px" xmlns="http://www.w3.org/2000/svg">
  <g transform="matrix(1 0 0 1 -384 -276 )">
    <path d="M 21.7104294478528 8.7012  C 22.759509202454 8.7012  26.5288343558282 8.7948  29.0098159509202 12.2724  C 28.7963190184049 12.4344  25.0269938650307 14.5116  25.0269938650307 19.1304  C 25.0269938650307 24.4728  29.8233128834356 26.3628  29.9668711656442 26.4096  C 29.9447852760736 26.5248  29.2049079754601 28.998  27.4380368098159 31.518  C 25.8625766871166 33.7356  24.2171779141104 35.9496  21.7141104294479 35.9496  C 19.2110429447853 35.9496  18.5668711656442 34.5276  15.6773006134969 34.5276  C 12.8613496932515 34.5276  11.8601226993865 35.9964  9.57055214723926 35.9964  C 7.28098159509202 35.9964  5.68343558282208 33.9444  3.84662576687116 31.4244  C 1.71901840490798 28.4652  0 23.868  0 19.5048  C 0 12.5064  4.65276073619632 8.7948  9.2319018404908 8.7948  C 11.6650306748466 8.7948  13.6932515337423 10.3572  15.2208588957055 10.3572  C 16.6748466257669 10.3572  18.9423312883436 8.7012  21.7104294478528 8.7012  Z M 15.4085889570552 8.3052  C 17.079754601227 8.3052  19.1815950920245 7.2108  20.3963190184049 5.7384  C 21.5411042944785 4.41  22.3509202453988 2.5668  22.3509202453988 0.7236  C 22.3509202453988 0.468  22.3288343558282 0.2088  22.280981595092 0  C 20.4184049079755 0.0683999999999997  18.2024539877301 1.2132  16.8662576687117 2.7288  C 15.8171779141104 3.8952  14.838036809816 5.7384  14.838036809816 7.6068  C 14.838036809816 7.8876  14.8858895705521 8.1684  14.9079754601227 8.2584  C 15.0257668711656 8.28  15.2171779141104 8.3052  15.4085889570552 8.3052  Z " fill-rule="nonzero" fill="#ffffff" stroke="none" transform="matrix(1 0 0 1 384 276 )" />
  </g>
</svg>