<?xml version="1.0" encoding="utf-8"?>
<svg version="1.1" xmlns:xlink="http://www.w3.org/1999/xlink" width="14px" height="14px" viewBox="42 160  14 14" xmlns="http://www.w3.org/2000/svg">
  <path d="M 42.5 162  A 1.5 1.5 0 0 1 44 160.5 L 54 160.5  A 1.5 1.5 0 0 1 55.5 162 L 55.5 172  A 1.5 1.5 0 0 1 54 173.5 L 44 173.5  A 1.5 1.5 0 0 1 42.5 172 L 42.5 162  Z " fill-rule="nonzero" fill="#ffffff" stroke="none" />
  <path d="M 42.5 162  A 1.5 1.5 0 0 1 44 160.5 L 54 160.5  A 1.5 1.5 0 0 1 55.5 162 L 55.5 172  A 1.5 1.5 0 0 1 54 173.5 L 44 173.5  A 1.5 1.5 0 0 1 42.5 172 L 42.5 162  Z " stroke-width="1" stroke="#2699fb" fill="none" />
</svg>