<?xml version="1.0" encoding="utf-8"?>
<svg version="1.1" xmlns:xlink="http://www.w3.org/1999/xlink" width="14px" height="14px" viewBox="534 295  14 14" xmlns="http://www.w3.org/2000/svg">
  <path d="M 534.5 297  A 1.5 1.5 0 0 1 536 295.5 L 546 295.5  A 1.5 1.5 0 0 1 547.5 297 L 547.5 307  A 1.5 1.5 0 0 1 546 308.5 L 536 308.5  A 1.5 1.5 0 0 1 534.5 307 L 534.5 297  Z " fill-rule="nonzero" fill="#ffffff" stroke="none" />
  <path d="M 534.5 297  A 1.5 1.5 0 0 1 536 295.5 L 546 295.5  A 1.5 1.5 0 0 1 547.5 297 L 547.5 307  A 1.5 1.5 0 0 1 546 308.5 L 536 308.5  A 1.5 1.5 0 0 1 534.5 307 L 534.5 297  Z " stroke-width="1" stroke="#2699fb" fill="none" />
  <path d="M 537.5 302.5  L 540.5 305.5  " stroke-width="3" stroke="#2699fb" fill="none" />
  <path d="M 540.5 305.5  L 545.5 298.5  " stroke-width="3" stroke="#2699fb" fill="none" />
</svg>