<?xml version="1.0" encoding="utf-8"?>
<svg version="1.1" xmlns:xlink="http://www.w3.org/1999/xlink" width="208px" height="208px" xmlns="http://www.w3.org/2000/svg">
  <g transform="matrix(1 0 0 1 -909 -118 )">
    <path d="M 138 184  L 138 208  L 115 208  L 115 184  L 138 184  Z M 115 184  L 115 127  L 93 127  L 93 184  L 115 184  Z M 208 150  L 208 104  L 184 104  L 184 150  L 208 150  Z M 184 104  L 184 81  L 161 81  L 161 104  L 184 104  Z M 47 127  L 47 104  L 24 104  L 24 127  L 47 127  Z M 24 104  L 24 81  L 0 81  L 0 104  L 24 104  Z M 104 0  L 104 24  L 127 24  L 127 0  L 104 0  Z M 52 18  L 18 18  L 18 52  L 52 52  L 52 18  Z M 70 57.7777777777778  C 69.3333333333333 64.1333333333333  64.1333333333333 69.3333333333333  57.7777777777778 70  L 11.5555555555556 70  C 5.2 69.3333333333333  0 64.1333333333333  0 57.7777777777778  L 0 11.5555555555556  C 0 5.2  5.2 0  11.5555555555556 0  L 57.7777777777778 0  C 64.1333333333333 0  69.3333333333333 5.2  70 11.5555555555556  L 70 57.7777777777778  Z M 52 156  L 18 156  L 18 190  L 52 190  L 52 156  Z M 70 196.444444444444  C 69.3333333333333 202.8  64.1333333333333 208  57.7777777777778 208  L 11.5555555555556 208  C 5.2 208  0 202.8  0 196.444444444444  L 0 150.222222222222  C 0 143.866666666667  5.2 138.666666666667  11.5555555555556 138  L 57.7777777777778 138  C 64.1333333333333 138.666666666667  69.3333333333333 143.866666666667  70 150.222222222222  L 70 196.444444444444  Z M 190 18  L 156 18  L 156 52  L 190 52  L 190 18  Z M 208 57.7777777777778  C 208 64.1333333333333  202.8 69.3333333333333  196.444444444444 70  L 150.222222222222 70  C 143.866666666667 69.3333333333333  138.666666666667 64.1333333333333  138 57.7777777777778  L 138 11.5555555555556  C 138.666666666667 5.2  143.866666666667 0  150.222222222222 0  L 196.444444444444 0  C 202.8 0  208 5.2  208 11.5555555555556  L 208 57.7777777777778  Z M 208 184  L 184 184  L 184 150  L 138 150  L 138 173  L 161 173  L 161 208  L 208 208  L 208 184  Z M 161 127  L 161 104  L 115 104  L 115 127  L 161 127  Z M 115 104  L 115 81  L 47 81  L 47 104  L 70 104  L 70 127  L 93 127  L 93 104  L 115 104  Z M 81 70  L 127 70  L 127 47  L 104 47  L 104 24  L 81 24  L 81 70  Z M 44 44  L 44 26  L 26 26  L 26 44  L 44 44  Z M 44 182  L 44 164  L 26 164  L 26 182  L 44 182  Z M 182 44  L 182 26  L 164 26  L 164 44  L 182 44  Z " fill-rule="nonzero" fill="#2699fb" stroke="none" transform="matrix(1 0 0 1 909 118 )" />
  </g>
</svg>