<?xml version="1.0" encoding="utf-8"?>
<svg version="1.1" xmlns:xlink="http://www.w3.org/1999/xlink" width="146px" height="146px" xmlns="http://www.w3.org/2000/svg">
  <g transform="matrix(1 0 0 1 -114 -354 )">
    <path d="M 97 129  L 97 146  L 81 146  L 81 129  L 97 129  Z M 81 129  L 81 89  L 65 89  L 65 129  L 81 129  Z M 146 105  L 146 73  L 129 73  L 129 105  L 146 105  Z M 129 73  L 129 57  L 113 57  L 113 73  L 129 73  Z M 33 89  L 33 73  L 17 73  L 17 89  L 33 89  Z M 17 73  L 17 57  L 0 57  L 0 73  L 17 73  Z M 73 0  L 73 17  L 89 17  L 89 0  L 73 0  Z M 37 13  L 13 13  L 13 37  L 37 37  L 37 13  Z M 49 40.5555555555556  C 48.6666666666667 45.0166666666667  45.0166666666667 48.6666666666667  40.5555555555556 49  L 8.11111111111111 49  C 3.65 48.6666666666667  0 45.0166666666667  0 40.5555555555556  L 0 8.11111111111111  C 0 3.65  3.65 0  8.11111111111111 0  L 40.5555555555556 0  C 45.0166666666667 0  48.6666666666667 3.65  49 8.11111111111111  L 49 40.5555555555556  Z M 37 109  L 13 109  L 13 133  L 37 133  L 37 109  Z M 49 137.888888888889  C 48.6666666666667 142.35  45.0166666666667 146  40.5555555555556 146  L 8.11111111111111 146  C 3.65 146  0 142.35  0 137.888888888889  L 0 105.444444444444  C 0 100.983333333333  3.65 97.3333333333333  8.11111111111111 97  L 40.5555555555556 97  C 45.0166666666667 97.3333333333333  48.6666666666667 100.983333333333  49 105.444444444444  L 49 137.888888888889  Z M 133 13  L 109 13  L 109 37  L 133 37  L 133 13  Z M 146 40.5555555555556  C 146 45.0166666666667  142.35 48.6666666666667  137.888888888889 49  L 105.444444444444 49  C 100.983333333333 48.6666666666667  97.3333333333333 45.0166666666667  97 40.5555555555556  L 97 8.11111111111111  C 97.3333333333333 3.65  100.983333333333 0  105.444444444444 0  L 137.888888888889 0  C 142.35 0  146 3.65  146 8.11111111111111  L 146 40.5555555555556  Z M 146 129  L 129 129  L 129 105  L 97 105  L 97 121  L 113 121  L 113 146  L 146 146  L 146 129  Z M 113 89  L 113 73  L 81 73  L 81 89  L 113 89  Z M 81 73  L 81 57  L 33 57  L 33 73  L 49 73  L 49 89  L 65 89  L 65 73  L 81 73  Z M 57 49  L 89 49  L 89 33  L 73 33  L 73 17  L 57 17  L 57 49  Z M 31 31  L 31 19  L 19 19  L 19 31  L 31 31  Z M 31 127  L 31 115  L 19 115  L 19 127  L 31 127  Z M 127 31  L 127 19  L 115 19  L 115 31  L 127 31  Z " fill-rule="nonzero" fill="#2699fb" stroke="none" transform="matrix(1 0 0 1 114 354 )" />
  </g>
</svg>