<?xml version="1.0" encoding="utf-8"?>
<svg version="1.1" xmlns:xlink="http://www.w3.org/1999/xlink" width="14px" height="14px" viewBox="45 3565  14 14" xmlns="http://www.w3.org/2000/svg">
  <path d="M 45.5 3567  A 1.5 1.5 0 0 1 47 3565.5 L 57 3565.5  A 1.5 1.5 0 0 1 58.5 3567 L 58.5 3577  A 1.5 1.5 0 0 1 57 3578.5 L 47 3578.5  A 1.5 1.5 0 0 1 45.5 3577 L 45.5 3567  Z " fill-rule="nonzero" fill="#ffffff" stroke="none" />
  <path d="M 45.5 3567  A 1.5 1.5 0 0 1 47 3565.5 L 57 3565.5  A 1.5 1.5 0 0 1 58.5 3567 L 58.5 3577  A 1.5 1.5 0 0 1 57 3578.5 L 47 3578.5  A 1.5 1.5 0 0 1 45.5 3577 L 45.5 3567  Z " stroke-width="1" stroke="#2699fb" fill="none" />
</svg>