<?xml version="1.0" encoding="utf-8"?>
<svg version="1.1" xmlns:xlink="http://www.w3.org/1999/xlink" width="14px" height="14px" viewBox="567 2641  14 14" xmlns="http://www.w3.org/2000/svg">
  <path d="M 567.5 2643  A 1.5 1.5 0 0 1 569 2641.5 L 579 2641.5  A 1.5 1.5 0 0 1 580.5 2643 L 580.5 2653  A 1.5 1.5 0 0 1 579 2654.5 L 569 2654.5  A 1.5 1.5 0 0 1 567.5 2653 L 567.5 2643  Z " fill-rule="nonzero" fill="#f0f0f0" stroke="none" />
  <path d="M 567.5 2643  A 1.5 1.5 0 0 1 569 2641.5 L 579 2641.5  A 1.5 1.5 0 0 1 580.5 2643 L 580.5 2653  A 1.5 1.5 0 0 1 579 2654.5 L 569 2654.5  A 1.5 1.5 0 0 1 567.5 2653 L 567.5 2643  Z " stroke-width="1" stroke="#2699fb" fill="none" />
</svg>