<?xml version="1.0" encoding="utf-8"?>
<svg version="1.1" xmlns:xlink="http://www.w3.org/1999/xlink" width="33px" height="39px" xmlns="http://www.w3.org/2000/svg">
  <g transform="matrix(1 0 0 1 -1166 -21 )">
    <path d="M 32.780859375 28.1962890625  C 32.926953125 29.4742838541667  33 30.8326822916667  33 32.271484375  C 33 34.1165364583333  32.462890625 35.69921875  31.388671875 37.01953125  C 30.314453125 38.33984375  29.02109375 39  27.50859375 39  L 5.49140625 39  C 3.97890625 39  2.685546875 38.33984375  1.611328125 37.01953125  C 0.537109375 35.69921875  0 34.1165364583333  0 32.271484375  C 0 30.8326822916667  0.0730468750000002 29.4742838541667  0.219140625 28.1962890625  C 0.365234375 26.9182942708333  0.6359375 25.6318359375  1.03125 24.3369140625  C 1.4265625 23.0419921875  1.929296875 21.9332682291667  2.539453125 21.0107421875  C 3.149609375 20.0882161458333  3.957421875 19.3349609375  4.962890625 18.7509765625  C 5.968359375 18.1669921875  7.12421875 17.875  8.43046875 17.875  C 10.68203125 20.0416666666667  13.371875 21.125  16.5 21.125  C 19.628125 21.125  22.31796875 20.0416666666667  24.56953125 17.875  C 25.87578125 17.875  27.031640625 18.1669921875  28.037109375 18.7509765625  C 29.042578125 19.3349609375  29.850390625 20.0882161458333  30.460546875 21.0107421875  C 31.070703125 21.9332682291667  31.5734375 23.0419921875  31.96875 24.3369140625  C 32.3640625 25.6318359375  32.634765625 26.9182942708333  32.780859375 28.1962890625  Z M 23.499609375 2.8564453125  C 25.433203125 4.7607421875  26.4 7.05859375  26.4 9.75  C 26.4 12.44140625  25.433203125 14.7392578125  23.499609375 16.6435546875  C 21.566015625 18.5478515625  19.2328125 19.5  16.5 19.5  C 13.7671875 19.5  11.433984375 18.5478515625  9.500390625 16.6435546875  C 7.566796875 14.7392578125  6.6 12.44140625  6.6 9.75  C 6.6 7.05859375  7.566796875 4.7607421875  9.500390625 2.8564453125  C 11.433984375 0.9521484375  13.7671875 0  16.5 0  C 19.2328125 0  21.566015625 0.9521484375  23.499609375 2.8564453125  Z " fill-rule="nonzero" fill="#ffffff" stroke="none" transform="matrix(1 0 0 1 1166 21 )" />
  </g>
</svg>