<?xml version="1.0" encoding="utf-8"?>
<svg version="1.1" xmlns:xlink="http://www.w3.org/1999/xlink" width="46px" height="39px" xmlns="http://www.w3.org/2000/svg">
  <g transform="matrix(1 0 0 1 -1252 -21 )">
    <path d="M 16.6418269230769 32.9616477272727  C 17.3421474358974 33.6633522727273  17.6923076923077 34.4943181818182  17.6923076923077 35.4545454545455  C 17.6923076923077 36.4147727272727  17.3421474358974 37.2457386363636  16.6418269230769 37.9474431818182  C 15.9415064102564 38.6491477272727  15.1121794871795 39  14.1538461538462 39  C 13.1955128205128 39  12.3661858974359 38.6491477272727  11.6658653846154 37.9474431818182  C 10.9655448717949 37.2457386363636  10.6153846153846 36.4147727272727  10.6153846153846 35.4545454545455  C 10.6153846153846 34.4943181818182  10.9655448717949 33.6633522727273  11.6658653846154 32.9616477272727  C 12.3661858974359 32.2599431818182  13.1955128205128 31.9090909090909  14.1538461538462 31.9090909090909  C 15.1121794871795 31.9090909090909  15.9415064102564 32.2599431818182  16.6418269230769 32.9616477272727  Z M 41.4110576923077 32.9616477272727  C 42.1113782051282 33.6633522727273  42.4615384615385 34.4943181818182  42.4615384615385 35.4545454545455  C 42.4615384615385 36.4147727272727  42.1113782051282 37.2457386363636  41.4110576923077 37.9474431818182  C 40.7107371794872 38.6491477272727  39.8814102564103 39  38.9230769230769 39  C 37.9647435897436 39  37.1354166666667 38.6491477272727  36.4350961538462 37.9474431818182  C 35.7347756410256 37.2457386363636  35.3846153846154 36.4147727272727  35.3846153846154 35.4545454545455  C 35.3846153846154 34.4943181818182  35.7347756410256 33.6633522727273  36.4350961538462 32.9616477272727  C 37.1354166666667 32.2599431818182  37.9647435897436 31.9090909090909  38.9230769230769 31.9090909090909  C 39.8814102564103 31.9090909090909  40.7107371794872 32.2599431818182  41.4110576923077 32.9616477272727  Z M 45.4747596153846 4.07173295454545  C 45.8249198717949 4.42258522727272  46 4.83806818181818  46 5.31818181818182  L 46 19.5  C 46 19.9431818181818  45.8479567307692 20.3355823863636  45.5438701923077 20.6772017045455  C 45.2397836538462 21.0188210227273  44.8665865384615 21.2173295454545  44.4242788461538 21.2727272727273  L 15.5637019230769 24.6519886363636  C 15.8032852564103 25.7599431818182  15.9230769230769 26.40625  15.9230769230769 26.5909090909091  C 15.9230769230769 26.8863636363636  15.7019230769231 27.4772727272727  15.2596153846154 28  L 40.6923076923077 28  C 41.1714743589744 28.3636363636364  41.5861378205128 28.5390625  41.9362980769231 28.8899147727273  C 42.2864583333333 29.2407670454545  42.4615384615385 29.65625  42.4615384615385 30.1363636363636  C 42.4615384615385 30.6164772727273  42.2864583333333 31.0319602272727  41.9362980769231 31.3828125  C 41.5861378205128 31.7336647727273  41.1714743589744 31.9090909090909  40.6923076923077 32  L 12.3846153846154 32  C 11.9054487179487 31.9090909090909  11.4907852564103 31.7336647727273  11.140625 31.3828125  C 10.7904647435897 31.0319602272727  10.6153846153846 30.6164772727273  10.6153846153846 30.1363636363636  C 10.6153846153846 29.9332386363636  10.6891025641026 29.6424005681818  10.8365384615385 29.2638494318182  C 10.9839743589744 28.8852982954545  11.1314102564103 28.5529119318182  11.2788461538462 28.2666903409091  C 11.4262820512821 27.98046875  11.6243990384615 27.6111505681818  11.8731971153846 27.1587357954545  C 12.1219951923077 26.7063210227273  12.2648237179487 26.4339488636364  12.3016826923077 26.3416193181818  L 7.40865384615385 3.54545454545455  L 1.76923076923077 3.54545454545455  C 1.2900641025641 3.54545454545455  0.875400641025641 3.37002840909091  0.525240384615385 3.01917613636364  C 0.175080128205128 2.66832386363636  0 2.25284090909091  0 1.77272727272727  C 0 1.29261363636363  0.175080128205128 0.877130681818176  0.525240384615385 0.526278409090911  C 0.875400641025641 0.175426136363633  1.2900641025641 0  1.76923076923077 0  L 8.84615384615385 0  C 9.14102564102564 0  9.40364583333333 0.0600142045454519  9.63401442307692 0.180042613636364  C 9.86438301282051 0.300071022727273  10.0440705128205 0.443181818181818  10.1730769230769 0.609375  C 10.3020833333333 0.775568181818182  10.421875 1.00177556818181  10.5324519230769 1.28799715909091  C 10.6430288461538 1.57421875  10.7167467948718 1.81427556818182  10.7536057692308 2.00816761363636  C 10.7904647435897 2.20205965909091  10.8411458333333 2.47443181818181  10.9056490384615 2.82528409090909  C 10.9701522435897 3.17613636363636  11.0116185897436 3.41619318181818  11.0300480769231 4  L 44.2307692307692 4  C 44.7099358974359 3.54545454545455  45.1245993589744 3.72088068181818  45.4747596153846 4.07173295454545  Z " fill-rule="nonzero" fill="#ffffff" stroke="none" transform="matrix(1 0 0 1 1252 21 )" />
  </g>
</svg>