<?xml version="1.0" encoding="utf-8"?>
<svg version="1.1" xmlns:xlink="http://www.w3.org/1999/xlink" width="73px" height="80px" xmlns="http://www.w3.org/2000/svg">
  <g transform="matrix(1 0 0 1 -646 -820 )">
    <path d="M 11.263671875 66.7788461538461  C 11.8656684027778 66.1698717948718  12.1666666666667 65.4487179487179  12.1666666666667 64.6153846153846  C 12.1666666666667 63.7820512820513  11.8656684027778 63.0608974358974  11.263671875 62.4519230769231  C 10.6616753472222 61.8429487179487  9.94878472222222 61.5384615384615  9.125 61.5384615384615  C 8.30121527777778 61.5384615384615  7.58832465277778 61.8429487179487  6.986328125 62.4519230769231  C 6.38433159722222 63.0608974358974  6.08333333333333 63.7820512820513  6.08333333333333 64.6153846153846  C 6.08333333333333 65.4487179487179  6.38433159722222 66.1698717948718  6.986328125 66.7788461538461  C 7.58832465277778 67.3878205128205  8.30121527777778 67.6923076923077  9.125 67.6923076923077  C 9.94878472222222 67.6923076923077  10.6616753472222 67.3878205128205  11.263671875 66.7788461538461  Z M 65.8948567708333 40.8173076923077  C 66.5760633680556 39.3429487179487  66.9166666666667 38.0448717948718  66.9166666666667 36.9230769230769  C 66.9166666666667 35.2884615384615  66.298828125 33.8541666666667  65.0631510416667 32.6201923076923  C 63.8274739583333 31.3862179487179  62.4175347222222 30.7692307692308  60.8333333333333 31  L 44.1041666666667 31  C 44.1041666666667 28.9102564102564  44.8645833333333 26.3541666666667  46.3854166666667 23.1009615384615  C 47.90625 19.8477564102564  48.6666666666667 17.275641025641  48.6666666666667 15.3846153846154  C 48.6666666666667 12.2435897435897  48.1597222222222 9.91987179487179  47.1458333333333 8.41346153846154  C 46.1319444444445 6.90705128205128  44.1041666666667 6.15384615384615  41.0625 6.15384615384615  C 40.2387152777778 6.98717948717948  39.63671875 8.34935897435897  39.2565104166667 10.2403846153846  C 38.8763020833333 12.1314102564103  38.3931206597222 14.1426282051282  37.8069661458333 16.2740384615385  C 37.2208116319445 18.4054487179487  36.2782118055556 20.1602564102564  34.9791666666667 21.5384615384615  C 34.2821180555556 22.275641025641  33.0622829861111 23.7339743589744  31.3196614583333 25.9134615384615  C 31.1929253472222 26.0737179487179  30.8285590277778 26.5544871794872  30.2265625 27.3557692307692  C 29.6245659722222 28.1570512820513  29.1255425347222 28.8141025641026  28.7294921875 29.3269230769231  C 28.3334418402778 29.8397435897436  27.7868923611111 30.5208333333333  27.08984375 31.3701923076923  C 26.3927951388889 32.2195512820513  25.7591145833333 32.9246794871795  25.1888020833333 33.4855769230769  C 24.6184895833333 34.0464743589744  24.0085720486111 34.6153846153846  23.3590494791667 35.1923076923077  C 22.7095269097222 35.7692307692308  22.0758463541667 36.2019230769231  21.4580078125 36.4903846153846  C 20.8401692708333 36.7788461538461  20.2777777777778 36.9230769230769  19.7708333333333 36.9230769230769  L 19 36.9230769230769  L 19 67.6923076923077  L 19.7708333333333 67.6923076923077  C 20.1827256944444 67.6923076923077  20.6817491319444 67.7403846153846  21.2679036458333 67.8365384615385  C 21.8540581597222 67.9326923076923  22.3768446180556 68.036858974359  22.8362630208333 68.1490384615385  C 23.2956814236111 68.2612179487179  23.8976779513889 68.4375  24.6422526041667 68.6778846153846  C 25.3868272569444 68.9182692307692  25.9412977430556 69.1025641025641  26.3056640625 69.2307692307692  C 26.6700303819444 69.3589743589744  27.232421875 69.5592948717949  27.9928385416667 69.8317307692308  C 28.7532552083333 70.1041666666667  29.2126736111111 70.2724358974359  29.37109375 70.3365384615385  C 36.0564236111111 72.6762820512821  41.4743923611111 73.8461538461539  45.625 73.8461538461539  L 51.3756510416667 73.8461538461539  C 57.458984375 73.8461538461539  60.5006510416667 71.1698717948718  60.5006510416667 65.8173076923077  C 60.5006510416667 64.9839743589744  60.4214409722222 64.0865384615385  60.2630208333333 63.125  C 61.2135416666667 62.6121794871795  61.9660373263889 61.7708333333333  62.5205078125 60.6009615384615  C 63.0749782986111 59.4310897435897  63.3522135416667 58.2532051282051  63.3522135416667 57.0673076923077  C 63.3522135416667 55.8814102564103  63.0670572916667 54.775641025641  62.4967447916667 53.75  C 64.1759982638889 52.1474358974359  65.015625 50.2403846153846  65.015625 48.0288461538461  C 65.015625 47.2275641025641  64.8572048611111 46.338141025641  64.5403645833333 45.3605769230769  C 64.2235243055556 44.3830128205128  63.8274739583333 43.6217948717949  63.3522135416667 43.0769230769231  C 64.3661024305556 43.0448717948718  65.2136501736111 42.2916666666667  65.8948567708333 40.8173076923077  Z M 69.3880208333333 28.2692307692308  C 71.7960069444444 30.7051282051282  73 33.5737179487179  73 36.875  C 73 39.7275641025641  72.2237413194444 42.3397435897436  70.6712239583333 44.7115384615385  C 70.9563802083333 45.7692307692308  71.0989583333333 46.875  71.0989583333333 48.0288461538461  C 71.0989583333333 50.4967948717949  70.4969618055556 52.8044871794872  69.29296875 54.9519230769231  C 69.3880208333333 55.625  69.435546875 56.3141025641026  69.435546875 57.0192307692308  C 69.435546875 60.2564102564103  68.4850260416667 63.1089743589744  66.583984375 65.5769230769231  C 66.6156684027778 70.0320512820513  65.2690972222222 73.5496794871795  62.5442708333333 76.1298076923077  C 59.8194444444445 78.7099358974359  56.2233072916667 80  51.755859375 80  L 50.044921875 80  L 45.625 80  C 42.5833333333333 80  39.5812717013889 79.6394230769231  36.6188151041667 78.9182692307692  C 33.6563585069445 78.1971153846154  30.2265625 77.1474358974359  26.3294270833333 75.7692307692308  C 22.6540798611111 74.4871794871795  20.4678819444444 73.8461538461539  19.7708333333333 73  L 6.08333333333333 73  C 4.40407986111111 73.8461538461539  2.97037760416667 73.2451923076923  1.7822265625 72.0432692307692  C 0.594075520833333 70.8413461538461  0 69.3910256410256  0 67.6923076923077  L 0 36.9230769230769  C 0 35.224358974359  0.594075520833333 33.7740384615385  1.7822265625 32.5721153846154  C 2.97037760416667 31.3701923076923  4.40407986111111 30.7692307692308  6.08333333333333 31  L 19.10546875 31  C 20.24609375 30  22.4164496527778 27.5160256410256  25.6165364583333 23.3173076923077  C 27.4542100694444 20.9134615384615  29.1493055555556 18.8621794871795  30.7018229166667 17.1634615384615  C 31.4622395833333 16.3621794871795  32.0246310763889 14.9919871794872  32.3889973958333 13.0528846153846  C 32.7533637152778 11.113782051282  33.2365451388889 9.08653846153846  33.8385416666667 6.97115384615385  C 34.4405381944445 4.85576923076923  35.4227430555556 3.125  36.78515625 1.77884615384615  C 38.0208333333333 0.592948717948723  39.4466145833333 0  41.0625 0  C 43.7239583333333 0  46.1161024305556 0.520833333333339  48.2389322916667 1.5625  C 50.3617621527778 2.60416666666666  51.9776475694445 4.23076923076923  53.0865885416667 6.44230769230769  C 54.1955295138889 8.65384615384615  54.75 11.6346153846154  54.75 15.3846153846154  C 54.75 18.3653846153846  53.9895833333333 21.4423076923077  52.46875 24.6153846153846  L 60.8333333333333 24.6153846153846  C 64.1284722222222 24.6153846153846  66.9800347222222 25.8333333333333  69.3880208333333 28.2692307692308  Z " fill-rule="nonzero" fill="#2699fb" stroke="none" transform="matrix(1 0 0 1 646 820 )" />
  </g>
</svg>